<?xml version="1.0" encoding="utf-8"?>

<!DOCTYPE svg PUBLIC "-//W3C//DTD SVG 1.1//EN" "http://www.w3.org/Graphics/SVG/1.1/DTD/svg11.dtd">
<svg version="1.1" id="Layer_1" xmlns="http://www.w3.org/2000/svg" xmlns:xlink="http://www.w3.org/1999/xlink" x="0px" y="0px"
	 viewBox="-15.0694 -23.8134 840.1389 1327.627" enable-background="new -15.0694 -23.8134 840.1389 1327.627" xml:space="preserve"
	>
<g>
	<path opacity="0.98" fill="#3F3F3F" enable-background="new    " d="M498.4,0h4.04c6.79,1.14,12.85,5.44,15.92,11.64
		c6.4,12.13,6.51,26.5,4.81,39.8c-1.6,10.76-4.83,21.54-11.18,30.49c-3.09,4.35-5.64,9.13-6.82,14.37
		c-3.43,14.65,0.08,29.96-3.42,44.6c-1.49,6.04-4.09,11.92-8.21,16.63c-3.59,3.8-5.67,8.7-7.58,13.49
		c-0.3,6.68-0.89,13.65,1.62,20.02c-0.74-0.25-2.23-0.75-2.98-1c2.68,9.81,6.57,19.69,5.87,30.03c-1.1,6-1.88,12.08-3.46,17.98
		c-1.18-1.07-2.36-2.14-3.55-3.2c-0.92,5.32-1.18,10.73-2.06,16.06c-1.39,8.75-1.46,17.92-5.35,26.08
		c-3.31,8.59-8.79,17.44-6.96,26.97c4.25,8.66,14.35,11.59,22.48,15.4c2.36,1.34,6.61,2.06,6.28,5.56
		c-2.37,3.92-7.45,4.43-11.35,6.04c13.77,12.24,26.11,26.37,34.58,42.83c10.04,18.04,15.92,37.93,23.26,57.12
		c6.69,17.48,16.45,33.54,26.3799,49.33c5.36,8.33,11.05,16.46,15.73,25.2c20.31,36.79,29.25,78.38,36.7,119.35
		c4.0099,21.39,7.12,42.98,12.49,64.09c0.67,2.83,1.4,5.82,3.47,7.99c10.36,11.63,22.49,21.71,31.64,34.38
		c3.7,5.28,7.41,12.88,3.19,18.91c13.78,12.7,22.79,30.29,24.98,48.91c3.26,26.21-3.04,52.49-11.73,77.07
		c-2.48,8.13-6.19,15.82-8.83,23.88c3.3,8.23,10.42,14.36,18,18.63c6.22,3.58,13.41,4.73,20.46,5.43c-2.21,2.07-3.5,6.52-0.2,8.22
		c9.14,4.38,19.69,4.79,28.76,9.41c8.22,4.36,16.37,9.2599,22.65,16.25c15.9399,16.7,29.34,36.37,36.22,58.56
		c2.64,7.88,3.7,16.15,5.75,24.1799v2.8501c-2.02,21.8099-7.48,43.2699-16.13,63.38c-10.22,23.6499-23.41,45.8899-37.52,67.38
		c-0.0099-3,0.01-5.9901,0-8.9701c-4.84,0.64-7.74,4.89-11.08,7.9601c-25.84,26.5-58.4,46.12-93.53,57.62
		c-44.87,15.0299-92.75,17.63-139.71,16.3999c-40.49-1.2899-80.78-5.8099-121.03-10.11c-21.91-2.4399-44.18-3.1699-66.04,0.23
		c-25.03,3.63-48.95,12.15-73,19.66c-29.9,9.85-60.71,17.3-92.07,20.41c-9.73,1.39-19.6,1.28-29.35,2.49h-2.92
		c-16.11-4.03-30.97-11.66-46.49-17.36c-3.46-1.25-7.1-1.9401-10.45-3.46c-10.88-5.5-23.36-2.2201-34.89-1.38
		c1.94-4.12,6.78-6.9601,6.7-11.8601c-1.4-3.1399-5.23-3.74-8.24-4.2799c-11.44-1.1801-22.92,0.37-34.25,1.9299v-3.6699
		c11.95-8.8101,23.04-18.8301,32.69-30.13C46.51,1194.35,57.57,1176.7,71.03,1160.97c5.36-6.25,10.85-12.6,17.97-16.9
		c4.31-2.49,6.41-7.1499,9.19-11.0299c19.96-29.2101,36-60.8401,51.41-92.61c3.66-7.78,8.32-15.15,10.64-23.4901
		c3.14-10.89,5.33-22.03,8.03-33.03c6.85-28.16,12.92-56.7599,13.37-85.85c0.88-13.98,0.46-28,0.79-42
		c-0.02-2.34,0.23-4.76-0.52-7.01c-10.2-26.93-17.92-54.81-23.27-83.11c-0.73-13.72,1.81-27.62,7.01-40.32
		c-1.23-0.59-2.46-1.16-3.68-1.73c0.9-3.64,2.3-7.26,4.99-9.96c5.22-5.6,13.19-7.43,20.58-7.63c1.18-5.56,0.76-11.5-0.95-16.88
		c-4.25-7.18-8.5-14.38-11.96-21.99c-5.85-12.08-8.57-25.34-10.54-38.53c-2.88-26.32-4.2-52.85-8.95-78.9301
		c-2.4-14.47-5.76-28.9-11.58-42.4c-4.5-12.72-6.81-26.14-7.71-39.57c-1.97-29.52,4.36-58.75,11.72-87.14
		c-4.4-1.1-8.81-2.19-13.23-3.22c4.77-2.94,11.59-3.4,14.36-8.9c1.99-3.07,0.89-6.86,0.8-10.26c-3.15-1.09-6.43-1.69-9.71-2.21
		c5.23-3.07,10.65-6.55,13.31-12.26c0.93-2.43,3.25-5.14,1.8-7.75c-7.76-16.16-16.19-32.94-16.54-51.25
		c-1.21-15.87-0.99-31.82-0.61-47.72c-3.55-0.69-7.17-0.8-10.78-0.83c3.68-3.5,7.77-6.66,10.75-10.82
		c-0.66-4.84-3.26-9.17-4.87-13.74c-2.31,1.28-4.55,2.69-6.75,4.14c1.04-3.69,2.26-7.32,3.39-10.97
		c-3.21-4.61-5.93-9.66-10.15-13.46c-3.33-3.15-7.57-5.01-11.49-7.28c3.42-0.64,6.87-1.15,10.3-1.76c-1.38-3.01-2.89-6.08-5.34-8.38
		c-3.12-3.05-7.24-4.67-10.88-6.95c1.63-1.78,3.76-2.9,6.02-3.66c-4.43-10.31-8.91-20.64-11.69-31.54
		c-4.41-14.09-0.21-29.04-3.07-43.34c-0.63-3.42-2.89-6.25-3.66-9.63C86.68,66.88,82.81,54.66,83.3,42
		c-0.04-8.65,3.41-17.93,10.7-23c7.32-3.92,16.13-3.86,24.13-2.43c15.44,2.62,29.27,11.15,40.41,21.92
		c18.3,17.76,35.85,36.57,56.83,51.27c0.98,0.44,2.23,1.9,3.28,0.85c0.57-1.55-0.29-3.2-0.44-4.76c7.6,5.11,15.34,10.44,24.4,12.55
		c13.24,3.07,26.95,2.19,40.43,2.36c22.67-0.29,45.62,0.99,67.99-3.53c5.31-1.25,10.92-2.51,15.32-5.92
		c2.29-3.16,3.17-7.1,5.1-10.49c0.43,4.1,1.12,8.57-1.49,12.13c3.56-2.83,7.23-5.65,11.5-7.34c2.52-1.15,5.49-1.64,7.41-3.8
		c11.03-11.95,21.43-24.52,33.26-35.7C437.74,31.13,455.67,18.66,475,8.97C482.52,5.33,489.96,1.01,498.4,0 M480.14,10.3
		c-20.76,10.06-40.09,23.17-56.58,39.34c-10.65,10.16-20.22,21.38-30,32.36c1.44,0,2.89,0,4.34,0c0.18,0.76,0.53,2.29,0.7,3.05
		c-5.72,6.8-9.96,15.07-11.6,23.84c6.94-2.52,14.35-3.59,21.69-3.94c0.66-1.07,1.72-1.97,1.99-3.23c-2.08-1.3-4.86-2.17-5.59-4.8
		c-1.81-5.41,0.69-10.91,3.06-15.71c5.87-10.68,14.16-19.76,22.67-28.39c9.54-9.18,19.72-17.72,30.68-25.16
		c11.62-7.73,24.09-14.83,37.93-17.54c4.39-0.2,9.1-0.82,13.23,1.09c1.59,1.24,2.07,3.59,4.07,4.45
		c-2.57-6.17-8.58-11.95-15.72-11.96C493.44,3.21,486.77,7.27,480.14,10.3 M479.96,20.97c-22.34,11.88-42.14,28.38-58.58,47.57
		c-5.55,7.02-11.23,14.43-13.28,23.33c-1.16,4.16,3.38,7.1,7.02,6.76c4.32-0.74,7.69-3.8,10.85-6.61
		c8.63-8.39,16.37-17.87,26.44-24.63c6.14-4.08,13.14-7.27,20.59-7.7c-2.21-1.88-5.04-3.02-7.98-2.7
		c-5.51,0.31-10.96,1.37-16.44,2.03c9-9.31,19.19-17.84,30.93-23.5c7.24-3.26,15.63-5.88,23.46-3.18
		c6.36,2.14,10.45,8.35,11.61,14.75c2.29-7.42,3.27-15.49,1.4-23.12c-0.87-3.59-2.29-7.39-5.37-9.65
		C499.99,11.5,489.44,16.67,479.96,20.97 M98.9,20.66c-3.77,0.94-6.38,4.01-8.42,7.12l-1.13,0.12c-0.03,0.39-0.11,1.17-0.15,1.56
		c-5.68,15.22-0.51,31.61,3.19,46.69c0.97,5.8,5.08,10.77,4.88,16.82c0.79,9.92-0.45,19.86,0.19,29.78
		c0.42-1.56,0.26-3.18,0.18-4.76c-0.33-6.71,1.76-13.33,1.02-20.04c-0.78-6.41-2.26-12.72-4.27-18.85
		c-1.85-2.76-2.04-6.15-2.91-9.26c-2.81-11.39-4.64-23.21-3.39-34.95c1.43-4.31,2.96-9.61,7.94-10.95
		c8.43-2.52,17.36,0.06,25.55,2.4c7.91,2.84,16.34,5.61,22.43,11.68c11.32,9.67,21.4,20.67,31.21,31.85
		c8.99,11.13,18.16,22.33,24.5,35.25c2.31,4.87,4.52,10.04,4.36,15.54c3.67,3.21,7.17,6.61,10.98,9.66
		c-1.25-12.93-5.86-25.18-10.1-37.36c-1-2.4-1.1-5.01-1.08-7.57c-14.39-10.86-26.85-23.98-39.74-36.53
		c-9.69-9.88-20.13-19.56-33.11-24.9C120.93,20.03,109.55,17.37,98.9,20.66 M91.12,40.94c0.17,9.45,1.37,19.12,4.19,28.12
		c1.93-7.04,10.08-9.51,16.59-8.19c11.76,2.38,22.13,9.32,30.88,17.29c3.17,3.3,7.23,6.98,7.22,11.89c-1.07,3.1-4.9,3.53-7.6,2.5
		c-4.09-1.45-8.32,0.33-12.04,2c6.22-0.05,12.48,1.21,18,4.13c3.13,1.57,6.41,3.72,7.43,7.29c0.91,2.21-1.09,4.04-2.05,5.83
		c13.48,2.86,24.75,11.73,38.11,14.95c3.1,0.9,6.15-0.56,8.11-2.95c1.28-5.7-0.91-11.39-3.29-16.49c-6.31-13-15.55-24.23-24.6-35.38
		c-9.76-11.17-19.94-22.03-31.19-31.73c-4.4-4.3-10.31-6.48-15.91-8.73c-8.63-3.18-17.93-5.7-27.17-4.25
		C91.92,28.78,91.43,35.92,91.12,40.94 M519.83,40.92c-4.56,21.45-14.01,41.43-22.01,61.72c-0.36,13.41,0.35,26.85-0.41,40.26
		c5.44-15.95-0.14-33.4,5.02-49.46c2.09-8.84,9.04-15.27,12.25-23.59c5.35-13.13,6.63-27.54,5.89-41.59
		C519.88,32.39,520.99,36.78,519.83,40.92 M459.19,53.9c2.86-0.33,5.76-1.25,8.65-0.59c5.6,0.92,10.03,5.11,13.31,9.48
		c-6.48,0.1-13.08,0.66-19.03,3.47c-13.72,6.03-23.05,18.23-33.56,28.38c-3.74,3.46-7.9,7.02-13.14,7.7
		c-0.95,0.82-1.73,1.8-2.54,2.75c3.13,0.51,6.29,0.86,9.45,1.14c-4.09,3.69-9.72,5.3-13.9,8.97c15.85-4.3,32.42-4.51,48.73-4.29
		c0.34,1.08,0.69,2.16,1.05,3.24c-8.81,4.2-18.26,8.79-23.29,17.62c2.22,1.87,5.56,1.47,8.24,2.28
		c13.71,2.45,29.26,5.15,38.43,16.73c-5.67,1.23-12.22,1.89-16.33,6.47c-2.14,2.06-2.18,6.44,1.03,7.45
		c5.06,2.24,9.93,5.2,13.39,9.62c5.12-9.87,9.49-20.17,14.21-30.24c0.27-14.04,0.01-28.09,0.12-42.13
		c6.2-15.16,12.89-30.2,17.85-45.85c-0.29-6.04-0.91-12.89-5.53-17.34c-4.2-4.26-10.83-4.4-16.28-3.06
		C478.25,38.64,468.27,46.12,459.19,53.9 M104.58,64.78c-4.42,1.11-6.95,5.85-7.01,10.14c0.81,7.83,4.62,15.14,4.52,23.11
		c0.32,6.34-0.28,12.66-0.88,18.97c-0.32,16.97,5.55,33.42,12.82,48.52c-1.67,0.56-3.33,1.13-4.99,1.69
		c7.05,4.12,12.78,10.5,16.59,17.67c-2.57,0.2-5.1,0.68-7.57,1.36c5.4,3.59,9.5,8.86,12.49,14.55c3.37-6.68,6.16-13.72,10.54-19.85
		c6.41-9.4,15.54-18.24,27.16-20.17c-6.5-5.29-15.69-2.86-23.2-1.51c-0.41-1.11-0.82-2.22-1.23-3.32
		c12.01-4.56,24.46-8.39,37.31-9.53c2.94-0.5,5.92-0.51,8.86-0.04c-4.57-4.79-12.32-4.18-18.41-3.65c-0.32-1.2-0.61-2.4-0.86-3.61
		c7.48-3.62,15.43-6.5,23.72-7.5l0.75-1.02c-4.7,0.07-9.17-1.47-13.44-3.24c-11.37-4.61-22.08-12.1-34.66-12.69
		c-0.3-1.21-0.58-2.41-0.85-3.62c2.07-0.75,4.06-1.71,5.88-2.97c0.19-3.4-3.31-4.88-5.79-6.26c-7.58-3.53-16.44-4.96-24.58-2.64
		c-0.72-1.02-1.41-2.05-2.06-3.11c4.72-3.88,10.73-5.73,16.48-7.47c3.33-1.3,6.63,0.67,10.02,0.58c-0.94-3.69-4-6.27-6.57-8.86
		c-6.41-5.86-13.79-10.78-21.89-13.95C113.53,65.05,108.97,63.23,104.58,64.78 M368.98,98.94c-0.7,0.02-2.09,0.06-2.79,0.08
		c-0.34-0.92-0.7-1.82-1.09-2.7c-13.16,6.02-27.9,6.53-42.09,7.66c-22.34,0.07-44.68,0.59-67.01-0.1
		c-11.5-0.67-23.01-3.7-32.51-10.39c1.29,1.87,2.61,3.74,3.84,5.66c-4.59-0.21-9.48-0.55-13.37-3.25c-2.8-1.61-4.34-4.54-6.42-6.88
		c5.47,15.29,10.97,30.8,11.99,47.15c-12.65-3.39-26.21-1.94-38.36,2.64c3.82,0.52,7.95,1.35,10.84,4.1
		c2.02,1.85,2.37,4.66,3.16,7.14c-5.44,0.05-10.9-0.34-16.32,0.21c-5.87,1.05-11.85,1.86-17.51,3.78
		c5.48,0.53,11.18,3.61,12.81,9.15c-5.58,1.22-11.43,2.21-16.17,5.68c-13.36,9.07-20.54,24.38-25.85,39.11
		c5.39-3.57,10.88-7.07,16.83-9.65c1.65-0.51,4.04-1.02,5.11,0.75c0.51,3.42-0.94,6.68-2.2,9.78c-3.96,9.08-9.37,17.6-16.42,24.6
		c2.56,0.29,6.24,1.2,6.21,4.44c-1.27,6.62-0.42,13.42-0.63,20.12c0.24,2.09-1.16,4.2-0.1,6.21c0.33,10.53,0.42,21.14,2.08,31.55
		c2.42-6.86,4.29-14.06,8.22-20.26c2.8-4.47,8.17-5.86,12.48-8.36c-7.43-0.59-14.82-1.65-22.25-2.22c0.09-1.46,0.31-2.91,0.69-4.32
		c3.92-0.46,7.49-2.33,11.27-3.36c6.13-1.66,12.26-3.54,18.6-4.24c7.18-0.45,14.12,1.86,21.04,3.42c3.69,0.74,7.14,2.66,10.97,2.58
		c-0.43-5.97-1.99-11.88-1.59-17.91c0.25-4.82,1.7-9.44,2.61-14.15c2.53-11.2,4.94-22.43,7.5-33.62c0.87,0.06,2.62,0.18,3.49,0.24
		c-0.03,5.49-0.11,10.99,0.03,16.48c0.49,9,7.18,15.89,13.29,21.81c-0.07-9.22,1.97-18.63,6.99-26.47
		c5.76-8.97,12.83-17,19.74-25.09c1.01,0.68,2.02,1.36,3.04,2.04c-6.09,10.26-11.11,21.54-12.08,33.55
		c-0.65,6.32,1.76,12.33,3.88,18.14c0.71,1.82,1.38,3.71,2.62,5.25c0.5-1.48,1.19-2.88,2.22-4.05c1.59,6.97,1.87,14.32,4.94,20.88
		c2.25,5.13,4.43,10.3,6.66,15.45c2.67,4.52,6.86,8.78,6.64,14.4c-1.06,7.7-1.32,15.86-5.07,22.85
		c-6.68,3.83-13.09,8.12-19.64,12.16c-0.79-0.95-1.57-1.89-2.35-2.83c8.93-8.66,15.18-21.21,12.88-33.88
		c-11.03,3.52-23.36,5.09-34.47,1.13c-13.06-6.2-28.33-9.81-42.52-5.54c-8.61,2.58-13.65,10.68-17.94,17.98
		c6.6,8.83,15.01,16.35,24.79,21.5c10.66,5.8,22.63,8.28,34.23,11.47c6.63,1.84,13.84,4.24,17.99,10.12
		c5.25,7.64,6.92,16.99,8.7,25.91c1.32,9.02,2.48,18.08,2.53,27.21c-0.01,2.27,2.24,3.57,3.53,5.17c4.12-7.79,7.71-16.38,14.48-22.3
		c0.7,0.05,2.09,0.15,2.79,0.2c2.82,8.04,4.36,16.49,7.32,24.5c3.92-2.06,8.4-2.63,12.67-3.61c13.21-2.69,26.73-0.73,39.78,1.91
		c0.78-5.74,2.4-11.31,3.61-16.96c0.79-3.03,1.09-6.25,2.67-9.01c0.73,0.01,2.18,0.03,2.9,0.04c7.26,5.81,11.43,14.46,16.32,22.19
		c2.13-2.95,4.24-5.92,6.7-8.6c1.14-13.41,1.97-27.69,9.26-39.42c7.09-10.5,19.2-15.89,30.59-20.4
		c13.17-4.86,26.36-9.65,39.59-14.33c1.58-0.62,3.37-1.17,4.4-2.63c0.37-2.6,0.23-5.23,0.27-7.84c0.24-9.8-4.72-19.64-13.03-24.95
		c-10.57-6.84-23.61-7.66-35.84-7.68c-3.79,5.28-7,11.72-13.42,14.29c-11.42,4.36-24.18,2.77-35.61-0.76
		c-0.12,3.39-0.3,6.8-0.03,10.19c1.72,8.9,6.32,17.14,12.81,23.44c-0.71,0.95-1.43,1.89-2.14,2.85c-5.59-3.02-10.75-6.75-16.21-9.99
		c-1.36-0.99-3.26-1.6-3.89-3.3c-3.06-7.26-4.01-15.2-4.5-22.97c1.22-8.33,8.6-13.7,11.89-21.1c2.49-6.66,3.88-13.66,5.42-20.58
		c0.35-1.16,0.33-2.32-0.07-3.47c0.35-0.24,1.04-0.73,1.39-0.98c0.89-7.28,2.31-14.58,1.89-21.95c-1.39-13.93-4.42-27.62-7.49-41.25
		c7.72,3.86,14.12,10.33,18.4,17.82c4.24,6.55,8.64,13.13,14.15,18.68c1.34-7.85,3.89-15.45,5.5-23.25c1.19,0,2.39,0,3.59,0
		c2.27,12.87,3.97,26.13,1.87,39.15c-0.91,4.68-3.18,8.91-4.71,13.39c7.41,2.48,14.68,5.38,22.01,8.09
		c8.67,3.68,17.67,6.75,25.82,11.54c9.49,6.3,17.59,15.8,19.55,27.3c1.77,8.26-0.14,16.83-3.42,24.45
		c-1.36,3.63-5.45,5.19-6.94,8.77c2.23,2.45,4.32,5.63,2.92,9.07c-1.96,3.39-5.27,5.64-7.95,8.25c2.33,1.76,5.74,2.3,8.27,4.07
		c-0.96,0.87-1.92,1.75-2.86,2.63c9.33-2.72,19.26-3.24,28.79-1.28c2.72,0.83,5.35-0.64,8.01-1.1c-3.77,8.06-14.35,5.16-20.17,10.52
		c-0.5,0.06-1.5,0.19-2,0.26c-5.47,2.56-10.81,6.84-12.42,12.92c-0.91,3,0.2,6.68,2.96,8.33c3.23,2.14,6.75,3.81,9.89,6.1
		c4.58,3.2,8.25,7.78,10.14,13.07c6.82,20.48,7.5,42.22,8.37,63.59c-3.09-1.92-4.58-5.63-7.94-7.23
		c-4.89-2.82-11.73-4.22-16.57-0.58c-2.62,1.96-2.66,5.37-2.4,8.33c8.54,13.41,14.7,28.53,16.83,44.33
		c0.81,12.53,1.28,25.27-1.14,37.65c-0.79,4.06-2.38,7.9-3.33,11.93c-0.29-0.14-0.89-0.42-1.19-0.56c-1.45-3.33-3.15-6.58-5.16-9.61
		c0.6,21.05-0.08,42.54-7.02,62.64c-5.94,18.07-17.08,33.69-27.31,49.51c5.36-2.02,10.68-4.1801,16.26-5.54
		c6.91-1.81,14.11-0.95,21.16-1.41c-2.62,2.95-6.4,4.56-9.28,7.25c-9.15,8.2-15.69,18.91-20.63,30.05
		c3.97-4.27,7.52-8.97,11.99-12.77c2.77-1.18,5.88,0.46,8.81,0.02c-2.44,3.2-5.21,6.47-5.37,10.71
		c6.91-11.65,14.55-23.27,25.38-31.69c8.53-7.38,18.99-12.03,29.7-15.19c1.12,0.96,1.51,2.35,1.67,3.78
		c-7.66,4.57-15.48,9.72-20.18,17.53c-3.48,6.53-4.6,14.06-8.4,20.45c-2.82,4.76-6.66,9.07-11.5,11.84c0.61,0,1.18-0.16,1.72-0.49
		c8.66-4.56,18.85-6.1,28.49-4.52c4.29,0.84,8.95,1.28,12.42,4.23c4.9,4.16,7.92,10.03,10.56,15.78
		c7.1299,16.53,10.28,34.53,11.5,52.39c0.71,6.53-0.23,13.48,2.72,19.57c4.63,11.18,10,22.74,19.8,30.37
		c1.62,0.3,1.2-1.84,1.71-2.77c1.4-5.79,4.08-11.2,7.4-16.12c4.36-6.88,9.76-13.1,16.07-18.25c11.88-9.21,27.12-14.08,42.14-13.18
		c12.65,0.78,24.25,7.72,32.41,17.19c9.96,11.55,16.25,25.91,19.84,40.63c-2.14-1.45-4.12-3.12-6.22-4.61
		c6.7,27.45,9.0099,55.6899,9.96,83.85c4.2-10.84,7.47-22.01,10.36-33.26c4.04-17.49,7.21-35.35,6.78-53.36
		c0.08-10.73-0.47-22.33-6.54-31.58c-6.15-8.08-16.29-12.83-20.57-22.36c2.85-3.48,4.33-8.04,2.71-12.43
		c-3.47-8.27-10.36-14.4-16.4-20.8c-7.14-7.6201-15.38-14.9901-18.86-25.13c-1.52-5.5-2.81-11.06-4.1201-16.61
		c-8.86-43.88-14.1-88.8-29.37-131.12c-6.74-18.24-14.97-35.97-25.14-52.56c-10.95-18.02-22.86-35.61-31.12-55.1
		c-4.3701-10.25-7.8-20.86-11.69-31.3c-6.63-18.16-14.7-36.08-26.7-51.38c-7.62-9.89-16.75-18.51-26.41-26.37
		c5.14-1.33,10.32-2.6,15.17-4.79c-7.11-3.8-15.07-6.08-21.5-11.08c-3.94-2.92-7.33-7.21-7.35-12.32
		c0.07-12.05,7.55-22.23,10.51-33.58c1.97-13.34,3.55-26.73,5.17-40.11c1.52,1.01,2.73,2.4,3.85,3.84c0.96-1.54,1.03-3.45,1.27-5.2
		c0.75-12.98-2.88-26.09-9.77-37.08c-1-1.85-2.67-3.67-2.14-5.94c1.85-2.48,5.27-0.3,7.41,0.67c-3-6.26-8.04-11.67-14.44-14.49
		c-2.15-1.12-4.74-1.95-5.94-4.24c-2.18-3.27-0.96-7.68,1.57-10.38c3.05-3.17,7.25-5.29,11.62-5.8
		c-9.54-7.81-22.39-9.25-34.11-11.48c-3.21-0.82-7.63-0.69-9.13-4.31c2.35-8.99,10.69-14.21,18.16-18.66
		c-14.13,0.77-28.53,0.76-42.15,5.13c-2.16,1.17-4.32,0.3-5.75-1.5c1.45-4.47,6.05-6.43,9.6-8.95c-9.54-0.74-18.8,1.99-27.74,4.95
		c-0.32-10.27,4.51-19.72,10-28.07C383.76,87.1,375.27,92.04,368.98,98.94 M199.24,129.31c-1.27,1.16-3.79-0.02-4.31,2.03
		c4.93-0.74,9.92-0.64,14.89-0.59c-2.13-1.9-4.35-3.69-6.29-5.78C202.28,126.57,201.11,128.37,199.24,129.31 M356.71,183
		c2.31,9.19,3.89,18.55,5.16,27.93c1.1,9.75-0.07,19.56-1.72,29.17c0.36,2.49,1.98,4.63,2.97,6.92c7.56-1.95,15.16-5.4,23.14-4.03
		c-0.28-6.09,4.18-11.03,4.76-16.96c1.88-9.27,0.87-18.79-0.4-28.06c-1.59,7.02-3.65,13.94-5.07,21l-1.05-0.68
		c-6.53-7.52-12.84-15.3-18.09-23.79C363.86,190.17,360.8,185.97,356.71,183 M234.38,219.82c-1.72,6.53-1.5,13.34-0.98,20.02
		c-3.91-2.72-7.54-5.87-10.74-9.4c-5.08-5.63-10.31-12.24-10.09-20.25c-2.02,9.55-4.29,19.05-6.25,28.61
		c-1.05,5.92,0.55,11.8,1.27,17.65c7.27-3.72,12.78-10.21,20.4-13.33c7.18-2.71,15.22-0.45,21.7,3.08c0.31-0.59,0.94-1.76,1.25-2.34
		c-1.47-4.63-4.02-8.88-5.31-13.6c-4.67-11.45-1.66-24.22,3.02-35.15C242.49,202.36,236.4,210.3,234.38,219.82 M135.88,209.96
		c1.41,4.02,3.4,7.82,4.54,11.94c4.09-6.25,7.98-12.82,9.92-20.09C145.24,204,140.51,206.94,135.88,209.96 M390.18,244.34
		c6.59,4.49,12.13,10.46,19.33,14.04c6.33,3.2,13.48,3.85,20.17,6c-3.72,2.31-8.54,3.26-12.83,2.18c-0.75-0.24-3.38-0.64-2.5,0.9
		c9.8,0.35,19.82,3.32,27.55,9.57c7.06,5.74,11.47,14.59,11.62,23.71c1.28-6.72,0.8-13.91-2.18-20.14
		c-4.29-9.11-12.23-16.28-21.37-20.36C417.01,254.21,403.49,249.52,390.18,244.34 M216.26,255.31c-4.88,3.62-10.2,6.67-15.92,8.74
		c3.2,0.03,6.38-0.23,9.57-0.47c3.23,2.11,4.35,6.24,6.77,9.13c-1.66-3.6-2.39-7.51-3.59-11.27c1.16-0.58,2.33-1.15,3.49-1.73
		c1.76-2.96,5.22-3.64,8.33-4.32c0.89,6.37,1.65,13.52,6.51,18.27c2.9,2.93,7.86,3.24,11.17,0.82c3.43-2.12,5.37-5.84,6.56-9.57
		c-4.42,0.24-7.94-2.87-11.88-4.36c-1.99-1.01-4.48-1.22-6.09-2.89c5.18-1.22,10.6-4.18,15.93-1.9c2.87,0.85,5.82,3.84,4.41,7.01
		c3.08,3.04,7.06,6.39,6.74,11.18c-0.02,4.66-4.76,6.99-8.46,8.59c-1.44-0.39-2.5,0.69-3.63,1.34c1.17-0.11,2.34-0.22,3.52-0.34
		l-0.11-0.42c4.52-0.51,8.63-2.92,13.17-3.17c0.27,2.36,0.81,4.67,1.18,7.01c0.88,8.82-2.27,17.56-7.01,24.89
		c3.11-2.15,6.53-3.87,9.5-6.22c2.45-7.24,4.06-15.02,3.46-22.69c-2.64-6.24-7.78-10.98-10.78-17.01
		c-2.65-6.31-3.67-13.13-5.18-19.76c-1.75,2.33-2.14,5.66-4.61,7.42c-0.55-6.06-7.66-6.9-12.4-7.77
		C228.68,244.54,222.34,250.83,216.26,255.31 M358.31,245.98c-0.87,6.16-2.68,12.14-4.66,18.02c-2.79,6.93-9.03,11.88-11.56,18.95
		c-0.2,7.73,1.24,15.58,4.06,22.79c3.25,1.93,6.53,3.85,9.48,6.24c-6.4-9.42-10.27-22.24-5.4-33.11c4.85,2.33,10.2,3.21,15.19,5.16
		l-1.22-1.13l1.49-0.55c-4.72,0.25-9.28-2.55-11.73-6.51c-1.49-6.42,3.87-11,8.06-14.87c1.15,3.48,1.83,7.28,4.28,10.16
		c2.58,3.35,7.36,5.74,11.49,3.87c5.07-2.23,6.94-7.96,8.28-12.9c-4.26-2.62-8.92-4.49-13.85-5.41c3.24-1.91,7.04-2.62,10.67-3.45
		c5.16-0.91,9.7,2.45,12.57,6.42c1.07,0.62,2.15,1.22,3.24,1.85c-1.06,3.8-2.13,7.6-3.49,11.3c0.21-0.43,0.62-1.28,0.82-1.71
		c1.91-2.72,3.43-5.73,5.85-8.06c3.37,0.36,6.74,0.71,10.14,0.75c-5.18-2.54-10.27-5.31-14.66-9.11c-4.73-3.9-9.71-9.07-16.41-8.43
		c-6.77,1.19-13.3,3.44-19.97,5.06C360.08,249.53,359.21,247.75,358.31,245.98 M152.77,261.31c-0.61,0.21-1.17,0.52-1.67,0.92
		c6.99,0.53,13.93,1.6,20.94,1.91c0.26,0.85,0.77,2.55,1.02,3.4c-5.93,2.85-12.76,4.32-17.76,8.82c-3.67,4.65-5.23,10.54-7.3,16
		c5.39-2.48,10.47-5.62,15.94-7.94c0.16,2.78,0.14,5.58-0.57,8.31c4.29-5.93,8.64-12.53,15.7-15.44c11.51-4.66,24.45-3.28,36.14,0
		c-2.21-3.35-4.22-6.83-6.56-10.09c-6.98,1.21-14.05,0.51-21.04-0.19c0.03-1.3,0.07-2.59,0.12-3.89c2.96-0.39,5.87-1.05,8.8-1.62
		c-5.28-2-10.88-3.04-16.4-4.2C170.77,255.58,161.67,258.91,152.77,261.31 M242.25,258.72c1.65,1.14,3.52,1.97,5.44,2.58
		c0.12-0.26,0.36-0.76,0.48-1.01C246.36,259.23,244.32,258.75,242.25,258.72 M217.82,263.46c0.51,4.55,2.17,9.11,5.21,12.59
		c3.53,3.89,8.91,5.24,13.93,5.89c5.65-0.92,11.77-1.91,16.31-5.66c2.77-1.95,0.88-6.18-1.37-7.46c-2.28,4.1-5.18,8.56-9.96,10.17
		c-4.91,2.27-10.85,0.2-14.22-3.79c-3.6-4.32-5.26-9.92-5.91-15.43C220.49,261.02,219.21,262.29,217.82,263.46 M389.29,263.38
		c-0.87,6.3-4.43,12.79-10.53,15.31c-7.86,2.77-16.17-3.31-18.33-10.82c-1.6,1.31-2.64,3.19-3.15,5.18c0.21,2.63,2.73,4,4.84,5.05
		c7.26,3.17,16.27,4.62,23.34,0.21c4.79-2.76,7.21-8.08,8.42-13.24c0.38-1.33-0.04-2.36-1.26-3.09
		C391.43,262.25,390.38,262.88,389.29,263.38 M143.82,298.98c3.04,13.38,9.4,25.72,15.33,38.01c-0.95,6.84-5.02,13.09-10.19,17.6
		c5.57,1.38,4.2,8.01,4.44,12.32c-1.6,4.09-4.12,8.08-8.32,9.88c3.04,0.67,6.12,0.11,9.15-0.33c-6.57,24.09-14.39,48.29-14.75,73.48
		c-0.28,21.34,6.12,41.92,11.85,62.25c6.05,20.94,12.63,42.02,13.88,63.92c1.18,8.22,0.63,16.54,1.64,24.79
		c-0.02,8.75,1.16,17.43,1.22,26.18c0.98,7.7,1.61,15.49,3.8,22.99c4.8,16.83,14.01,31.95,23.61,46.44c1.12,1.55,2.09,3.36,3.8,4.37
		c0.29-1.48,0.58-2.95,0.88-4.41c6.37,7.57,11.78,16.33,20.35,21.69c4.03,1.98,8.43,3.06,12.73,4.28c-1.28-2.29-3.72-4.71-3.05-7.47
		c2.03-3.58,6.42-1.3199,9.39-0.45c12.14,4.87,20.53,15.6,27.82,25.99c5.94,8.71,11.23,17.91,15.53,27.54
		c0.7,5.78,2.44,11.35,3.93,16.96c3.18,12.29,6.85,24.51,11.99,36.14c3.05,6.89,7.58,12.94,12.03,18.97
		c6.61,8.61,13.77,16.89,22.04,23.97c-2.06-5.04-4.11-10.08-5.91-15.21c9.14,1.8,17.39,6.57,24.6,12.34
		c14.3,10.8,25.05,25.4301,34.99,40.14c9.53-18.4,21.07-35.69,31.87-53.34c0.7-4.64,0.36-9.35,0.64-14.02
		c1.34-22.96,0.79-45.96,0.89-68.94c-0.09-5.59,0.27-11.21-0.45-16.76c-0.19,0.79-0.35,1.6-0.49,2.42
		c-6.86-6.52-14.64-14.45-24.9-13.92c-5.07,0.59-10.8,2.15-13.82,6.64c-3.9,5.92-5.51,12.95-8.62,19.27
		c-1.01,2.03-2.47,4.1-4.77,4.75c-2.44,0.65-4.91-0.68-6.48-2.48c-2.88-0.36-4.98,2.03-6.1,4.4c-3.17,6.38-2.24,13.66-3.09,20.52
		l-0.92-0.76c-3.82-6.99-7.4-14.21-12.71-20.22c-11.64-13.99-27.65-23.16-43.04-32.39c-17.3-10.1-35.45-19.9901-48.46-35.6201
		c-5.51-5.93-7.68-13.92-11.75-20.7599c-1.69,5.44-1.17,11.15-1.52,16.75c-1.23,0.08-2.46,0.16-3.68,0.25
		c-15.85-35.77-29.63-72.77-36.65-111.38c-2.04-12.5-3.42-25.2-2.59-37.88c-0.84-1.06-2.13-2.8-3.55-1.4
		c-4.53,3.48-7.64,8.85-8.68,14.44c-1.31,0.02-2.58-0.19-3.83-0.51c2.34-17.47-5.87-33.63-11.75-49.51
		c-3.95-11.52-4.05-23.87-6.01-35.78c-1.32-11.32-2.56-22.64-2.23-34.05c-0.23-16.78,4.27-34.15,15.2-47.21
		c-3.23,0.66-6.32,2.16-8.65,4.51c-2.69,2.69-4.55,6.09-7.34,8.69c1.72-11.59,1.99-23.79,7.52-34.41
		c2.82-5.73,7.38-10.32,12.39-14.17c-4.42-0.47-8.88,0.96-13.36,0.61c-0.49-1.23-0.79-2.52-0.85-3.84
		c3.88-2.11,8.18-3.09,12.41-4.17c2.55-2.44,5.38-4.53,8.52-6.15c-12.48-9.7-21.03-24.95-20.64-40.97c0.87-4.46,1.04-9,0.88-13.53
		C154.62,293.32,149.03,295.84,143.82,298.98 M163.05,301.7c-0.9,10.54,2.42,21.23,8.72,29.68c4.03,5.6,9.39,10.05,14.88,14.15
		c-2.95,2.22-6.74,3.01-9.51,5.51c13.56,0.73,28.07,3.23,38.4,12.78c-3.83,0.56-7.64,1.18-11.5,1.54c8.08,2.6,16.13,5.3,23.93,8.66
		c8.95,4.24,15.94,11.66,21.67,19.59c-1.04-13.99-2-28.2-6.45-41.62c-1.49-4.17-3.26-8.5-6.64-11.51c-3.94-3.21-8.88-4.78-13.71-6.1
		c-10.38-2.92-21.05-5.08-30.84-9.75C180.62,319.52,170.87,311.34,163.05,301.7 M404.36,332.28c-10.5,4.45-21.93,9.8-27.52,20.34
		c-6.13,12.41-6.56,26.56-7.37,40.1c4.4-6.7,10.15-12.8,17.52-16.2c11.71-0.76,21.25-8.43,30.37-15.09c-1.3-1.51-3.3-1.94-5.1-2.5
		c0.08-1.3,0.24-2.58,0.47-3.84c11.46,0.59,22.14-4.91,31-11.67c-2.55-1.85-5.66-2.58-8.51-3.83c0.01-0.28,0.01-0.85,0.02-1.13
		c4.12-3.55,9.12-6.4,11.8-11.32c-2.04-2.68-4.3-5.7-3.04-9.27C430.74,322.57,417.51,327.32,404.36,332.28 M443.91,349.87
		c-14.28,5.61-26.01,15.75-37.71,25.36c-9.65,4.98-20.33,8.99-27.8,17.22c-5.81,6.23-7.5,14.88-12,21.93
		c-0.56,1.13-1.52,2.21-1.36,3.57c0.09,7.53-1.67,15.58-6.71,21.4c-2.71,3.34-7.07,4.86-9.46,8.52
		c-9.87,12.77-25.83,20.44-41.96,20.07c-10.36-1.43-19.68-6.7-28.29-12.35c-3.9-2.45-7.16-5.77-11.11-8.14
		c-4.1-2.43-7.48-6.08-9.48-10.42c-3.1-6.59-3.53-13.96-5.11-20.96c-4.78-11.74-11.55-23.11-21.44-31.26
		c-4.84-4.22-11.26-5.56-16.79-8.54c-9.49-5.72-20.99-5.3-31.64-6.32c-0.06-1.26-0.11-2.53-0.15-3.78
		c4.07-0.92,8.25-2.22,11.37-5.13c-4.85-5.23-12.69-5.1-19.25-6.06c0.95,1.57,1.57,3.3,2.12,5.06c-3.22,2.74-6.89,5.04-9.4,8.52
		c-6.2,7.45-8.1,17.24-9.41,26.58c5.35-5.13,12.96-5.01,19.79-6.08c-2.4,3.57-5.62,6.48-8.22,9.9
		c-8.71,11.44-11.84,26.05-12.41,40.15c-0.28,19.02,2.74,37.86,5.03,56.69c1.79,17.29,12.62,32.05,14.68,49.27
		c0.29,1.7,0.08,3.64,1.13,5.13c2.26-4.19,7.01-9.77,12.28-7.05c4.12,2.64,2.43,7.88,2.63,11.92c0.7,30.48,9.1,60.12,18.68,88.86
		c5.44,14.87,10.72,29.9,17.69,44.12c0.35-3.64,0.03-7.55,1.9-10.83c1.21-1.81,3.95-1.67,5.11,0.1201
		c3.94,5.12,5.83,11.45,9.14,16.96c4.96,7.11,11.34,13.09,18.17,18.38c17.65,13.44,38.02,22.68,56.11,35.44
		c11.28,7.95,21.49,17.72,28.46,29.73c0.21-7.37,4.17-17.48,13.04-16.89c1.33,1.15,2.53,3,4.47,3.06c2.04-1.45,2.83-3.95,3.79-6.13
		c2.69-6.42,4.57-13.47,9.29-18.78c3-3.52,7.77-4.35,11.92-5.81c9.75-2.09,18.62,3.86,25.65,9.91c0.21-4.76,1.57-10,5.52-13.03
		c4.11-2.8,9.6-0.4,12.6,2.94c1.96-9.4,2.03-19.35,6.14-28.23c2.6-6.73,8.34-12.12,15.26-14.24c4.79-2.4,8.93-6.01,12.85-9.63
		c6.23-6.2,8.15-14.98,11.21-22.89c2.27-6.05,6.96-10.67,11.69-14.87c-20.99,9.51-35.35,29.23-44.3,49.89
		c-1.27-0.45-2.5-0.97-3.69-1.56c1.42-5.8701,0.16-12.39,3.64-17.65c-6.17,5.75-11.34,12.44-16.91,18.75
		c-1.09,1.28-2.61-0.78-3.81-0.87c4.18-15.85,13.28-30.2,25.01-41.54c-12.65,0.5699-23.82,7.0699-35.65,10.7599
		c12.16-19.03,26.43-37.24,33.55-58.95c4.18-12.61,6.06-25.89,6.57-39.13c1.04-11.63-0.52-23.26-0.43-34.89
		c3.63,4.48,6.1,9.83,9.45,14.54c3.28-15.13,3.41-30.87,0.92-46.11c-2.74-12.58-7.76-24.58-14.48-35.54
		c-3.8-5.38-1.02-13.83,5.05-16.2c6.67-2.7,14.25-0.71,20.12,3.01c-0.87-18.15-2.28-36.6-8.24-53.9
		c-3.03-8.21-11.24-12.21-18.25-16.43c-5.77-3.38-5.84-11.52-2.74-16.75c4.52-7.79,13.17-11.78,21.39-14.48
		C460.58,345.36,451.89,346.74,443.91,349.87 M196.22,357.39c0.99,1.63,1.46,3.45,1.25,5.38c2.69-0.93,5.55-0.9,8.36-1.18
		C202.95,359.54,199.43,358.77,196.22,357.39 M218.3,374.37c5.28,2.18,10.82,4.21,15.2,7.99c3.33,2.14,5.75,5.35,8.67,7.99
		c0.15,0.42,0.46,1.28,0.61,1.7l0.5,0.43c2.08,0.96,2.76,3.36,4.1,5.06c2.51,3.34,4.19,7.19,6.36,10.74
		c0.17-1.77,0.63-3.48,1.05-5.2c-0.79-1.32-1.95-2.36-3-3.45c-0.44,0.18-1.33,0.54-1.77,0.71c-4.28-5.22-7.19-11.74-12.84-15.69
		c-0.22-0.46-0.65-1.38-0.86-1.85c-4.76-2.28-8.8-6.38-14.1-7.5C221.03,374.59,219.69,374.18,218.3,374.37 M342.29,377.95
		c-1.97,8.99-4.35,17.91-5.87,26.98c1.79,7.45-0.61,14.99-3.2,21.94c-1.28,3.28-1.96,7.15-4.94,9.4c-4.59,3.92-10.6,5.25-16.26,6.85
		c0.75,1.4,1.08,2.92,1.12,4.52c7.29-0.32,14.61-0.53,21.85-1.56c7.99-1.17,16.57-3.81,21.64-10.53c5.21-7.53,5.23-17.26,4-25.99
		c-0.83-5.41-3.75-10.09-6.47-14.71C350.48,389.03,346.88,383.12,342.29,377.95 M259.92,400.98c-5.03,8.91-2.67,19.6-0.45,28.99
		c1.51,7.18,6.57,13.71,13.68,16.01c10.53,3.65,21.8,1.6,32.69,2.02c-0.11-1.75,2.3-5.17-0.91-5.22
		c-6.86-1.75-14.73-3.55-18.99-9.74c-4.77-8.16-7.31-17.69-7.02-27.15c-3.02-7.92-5.33-16.11-7.23-24.37
		C266.65,387.22,263.41,394.27,259.92,400.98 M361.33,399.55c1.22,3.45,2.87,6.85,2.92,10.61c2.14-2.77,3.03-6.22,4.68-9.27
		c-0.73,0.27-2.2,0.82-2.93,1.09c-0.01-2.86,0.02-5.7-0.06-8.55C364.32,395.4,362.72,397.4,361.33,399.55 M284.06,404.13
		c-1,1.32-1.18,2.92-1.24,4.53c4.01-0.78,8.11-0.72,12.19-0.66c-0.03-1.44-0.05-2.88-0.07-4.31c3.96-0.97,8.08-0.57,12.11-0.83
		c4.33-0.13,8.88-0.49,12.96,1.26c1.91,0.76,3.67,2.16,5.86,1.79c0.57,0.94,1.12,1.91,1.64,2.89c-5,2.93-10.83,4.03-16.52,4.62
		c0.07,8.57,1.45,17.05,1.31,25.64c6.42-1.51,14.92-3.56,16.57-11.02c2.87-7.77,6.38-16.64,2.82-24.77
		c-5.94-0.85-11.79-2.29-17.81-2.55C303.82,399.59,293.74,401.53,284.06,404.13 M285.56,412.96c0.07,0.49,0.2,1.48,0.27,1.97
		c3.86,2.39,9.64,3.31,11.41,8.08c1.28,3.9-3.3,5.55-4.4,8.6c4.99,2.64,10.54,3.75,15.91,5.31c-0.42-7.65-0.99-15.28-1.78-22.89
		C299.79,414.48,292.72,413.05,285.56,412.96 M289.03,430.8c0.81-2.73,3.07-4.52,5.02-6.43c-2.34-3.3-6.52-4.21-9.92-6
		C285.01,422.73,286.64,427.04,289.03,430.8 M344.67,447.03c-2.36,1.91-5.48,2.11-8.37,2.4c0.55,1.43,1.08,2.86,1.56,4.32
		C340.12,451.54,343.03,449.76,344.67,447.03 M278.31,450.5c-0.1,0.3-0.31,0.9-0.41,1.2c2.65-0.6,4.51,2.57,6.98,3.43
		c0.01-0.8,0.04-2.4,0.06-3.2C282.68,451.71,280.44,451.27,278.31,450.5 M308.11,451.71c-6.37,0.01-12.74,0.39-19.12,0.34
		c-0.19,0.48-0.56,1.45-0.75,1.93c3.01,5.01,9.49,5.95,14.82,6.35c8.82,0.38,17.84-0.72,26.05-4.06c1.7-0.93,3.95-1.56,4.95-3.32
		c-0.75-1.19-1.89-2.03-2.96-2.9C323.54,451.75,315.74,450.61,308.11,451.71 M445.05,715.1c-0.81,3.9301-1.01,7.98-1.07,12.01
		c-1.14,13.49-2.06,26.99-3.03,40.5c-6.12-3.84-11.32-9.04-17.27-13.16c0.97,27.54-0.3,55.08-0.75,82.61
		c-1.22,21.69-3.53,43.26-5.87,64.85c-3.28,26.91-6.05,54.15-14.21,80.13c11.31-1.9,22.74-0.64,34.03,0.72
		c13.48,1.81,26.8,4.71,39.9,8.35c8.7-31.12,16.99-62.4,23.03-94.16c5.61-33.99,21.05-65.61,25.23-99.91
		c2.41-16.5099,2.53-33.33,0.5-49.89c-1.81-15.67-5.09-31.45-12.13-45.6801c-2.55-4.71-5.32-9.97-10.38-12.34
		c-7.08-2.51-14.77-2.64-22.16-1.83C465.21,689.9,452.39,701.46,445.05,715.1 M442.19,712.77c3.86-7.15,9.07-13.59,15.45-18.66
		C449.12,696.32,443.8,704.54,442.19,712.77 M191.44,697.22c0.57,4.05-0.31,8.07-0.48,12.1201c-3.61,0.97-7.45,0.23-11.02,1.41
		c-5.37,1.21-11,4.27-13.03,9.69c1.11,0.9,2.16,1.89,3.19,2.9c-5.47,13.53-8.97,28.1299-7.96,42.79
		c5.08,25.31,11.58,50.38,20.47,74.64c-0.4-12.57,0.58-25.13,1.54-37.65c3.46-32.81,8.97-65.38,14.39-97.92
		C195.59,703.1,193.39,700.23,191.44,697.22 M202.26,704.97c-4,25.04-8.29,50.05-11.63,75.19c-1.73,13.22-3.37,26.48-3.87,39.81
		c-1.31,14.65-0.46,29.36-0.9,44.04c-0.41,17.71-0.21,35.48-1.81,53.14c-2.57,30.56-10.87,60.21-17.65,90.02
		c-3.56,17.09-11.64,32.73-18.83,48.5001c-5.15,11.4399-10.87,22.71-14.4,34.7899c9.71-9.47,20.18-18.1899,31.35-25.89
		c22.79-11.97,47.48-19.6799,72.06-27c6.51-39.2899,13.76-78.46,20.62-117.7c6.06-31.66,8.11-63.85,11.35-95.85
		c1.95-18.58,6.79-36.7,10.73-54.9c-5.29-11.96-12.21-23.17-20.1-33.58c-6.52-8.37-14.62-16.1-25.05-19.1
		c1.8,4.92,6.72,8.09,9.71,12.36c-8.96-2.18-18.23-3.83-26.51-8.06C211.12,716.8,206.79,710.63,202.26,704.97 M440.24,722.01
		c-0.88,6.08-1.69,12.17-2.34,18.28c-4.23-2.77-7.78-8.67-13.56-7.17c-3.66,3.4-4.11,8.85-4.35,13.54c6,4.67,11.91,9.46,17.89,14.17
		c0.34-9.28,1.05-18.54,2.06-27.76c0.05-4.5,0.27-9.04,1.35-13.42c0.36-1.4901,0.42-3.09-0.28-4.47
		C440.02,717.32,440.54,719.73,440.24,722.01 M670.07,752.48c3.61,4.95,8.25,8.98,12.65,13.19c-0.05-0.29-0.17-0.87-0.23-1.17
		c-3.78-4.54-8.13-8.59-12.03-13.04C670.37,751.72,670.17,752.23,670.07,752.48 M588.25,766.33c-12.32,6.56-21.47,17.85-27.72,30.12
		c-7.36,18.14-8.42,37.93-10.64,57.15c-3.68-5.95-6.3-12.5699-9.28-18.91c-4.71,10.53-8.43,21.51-12.74,32.23
		c-7.3,19.07-14.69,38.11-21.44,57.39c-3.68,12.24-6.36,24.93-6.37,37.76c0.86,6.83,1.12,14.47,5.62,20.04
		c15.56,8.04,32.02,14.56,49.15,18.37c8.29,1.75,17.05,2.44,25.3,0.09c15.13-3.66,30.38-9.67,41.44-21.02
		c8.43-8.61,12.78-20.05,18.25-30.55c11.13-21.02,17.71-44.27,20.53-67.83c3.52-28.37,1.6-57.27-4.7599-85.11
		c3.34,2.18,6.22,4.97,9.56,7.16c-3.2-9.42-7.9-18.41-14.13-26.2c-7.39-9.2-17.93-16.36-29.87-17.62
		C609.84,758.2,598.28,761.12,588.25,766.33 M281.06,778.26c-4.71,19.53-8.79,39.3-10.04,59.39c-2.36,23.86-4.2,47.8-8.15,71.47
		c-3.23,18.27-6.38,36.56-9.77,54.81c6.36,7.61,13.02,14.97,19.67,22.34c1.53,1.76,3.35,3.36,4.39,5.51
		c-10.07,0.41-20.05,2.2-29.83,4.58c-2.12,13.4-4.63,26.73-6.89,40.1c12.83-3.83,25.72-7.45,38.59-11.14
		c11.96-3.5699,24.03-6.9799,35.43-12.1199c3.55-1.91,7.65-3.58,9.57-7.39c-3.25-4.91-9.32-6.21-14.36-8.48l-0.18-1.13
		c4.96-0.89,9.54-3.1,14.45-4.18c24.33-6.15,49.55-7.43,74.53-8.15c8.07-25.23,11.27-51.63,14.36-77.83
		c1.93-16.69,3.66-33.43,5.04-50.16c-9.92,16.46-20.69,32.47-29.23,49.72c-0.66,1-0.88,2.59-2.27,2.89
		c-5.53-9.53-11.97-18.54-19.08-26.96c-9.54-11.04-20.6-21.54-34.33-27.04c2.91,6.87,5.5,13.88,8.21,20.84
		c-10.86-7.37-20.16-16.82-28.46-26.91c-5.83-7.36-11.71-14.79-16.02-23.16C289.46,810.33,285.56,794.12,281.06,778.26
		 M530.29,779.22c-0.62,31.69-11.82,61.72-20.69,91.77c-4.51,14.56-6.33,29.75-9.75,44.57c-5.83,26.59-12.84,52.92-20.18,79.14
		c2.82-0.31,5.64-0.73,8.49-0.81c-1.26-2.45-2.69-4.82-4.14-7.15c2.23-1.85,4.93-3.33,7.95-2.77c11.1,1.5601,20.49,8.28,29.58,14.36
		c20.1,10.87,44.3,14.26,66.52,8.77c13.9-3.41,26.94-10.95,36.04-22.11c4.26-5.62,9.16-10.79,12.59-17
		c12.89-20.49,17.21-45.24,31.2-65.12c3.69,1.37,7.42,2.7,10.77,4.83c-1.21-1.61-2.26-3.33-3.21-5.09
		c-1.11-0.28-2.21-0.55-3.31-0.81c-0.17-30.06-2.56-60.24-9.21-89.6c-0.27-1.73,0.16-3.82-1.57-4.85c1.66,4.7,1.6,9.7,2.48,14.56
		c2.13,16.26,2.55,32.75,1.23,49.1c-2.02,27.46-8.89,54.82-21.75,79.28c-4.91,9.34-8.79,19.36-15.45,27.66
		c-8.97,11.43-22.23,18.63-35.83,23.11c-7.51,2.33-15.16,4.68-23.08,4.87c-13.6299-0.45-26.78-4.53-39.5099-9.13
		c-8.97-3.54-17.95-7.19-26.38-11.88c-5.6-6.93-6.39-16.39-6.57-24.97c0.23-15.02,3.61-29.92,8.93-43.93
		c10.8-30.06,22.66-59.72,34.03-89.56c0.27-0.16,0.8101-0.47,1.08-0.63c2.23,4.93,4.15,10.17,7.27,14.6
		c0.47-10.26,2.3-20.41,4.47-30.43C541.27,803.02,535.24,790.84,530.29,779.22 M639.89,969.87c-3.57,6.47-8.65,11.88-13.09,17.73
		c-10.75,13.06-26.58,21.33-43.11,24.28c-21.71,3.82-44.79,0.24-64.14-10.4c-7.42-5.03-14.92-10.23-23.56-12.93
		c-2.27-0.8-4.71-0.71-7.06-0.72c1.21,2.12,2.61,4.17,4.4,5.87c0.57,0.83,2.39,1.69,1.44,2.89c-8.39,1.03-16.91,2.58-25.36,1.17
		c-6.92-1.66-13.28-5.11-20.28-6.52c-21.05-4.56-42.77-3.3-64.15-3.24c-6.05-0.14-12.01,1.2-18.06,1.06
		c-15.99,1.63-32.12,3.3-47.52,8.16c2.89,1.76,6.37,3.5,7.66,6.83c1.14,3.32-1.1,6.43-3.69,8.28c-7.66,5.29-16.65,8.07-25.36,11.1
		c-17.53,5.64-35.36,10.2501-52.98,15.57c-26.7,7.83-53.64,15.75-78.4,28.67c-17.69,12.1699-33.62,26.86-47.44,43.2899
		c-5.73,7.29-11.74,14.53-16.1,22.73c9.66-7.5199,19.63-14.6699,28.9-22.6799c1.66-1.21,2.42-3.22,3.94-4.53
		c11.55-6.61,23.27-13.3199,36.24-16.74c11.96-3.4299,24.5-2.97,36.81-2.75c13.45-0.22,26.94,1.73,40.35,0.5601
		c-0.09,0.9199-0.27,2.74-0.37,3.6599c-6.82,0.77-13.93,2.99-18.74,8.14c24.2-1.22,48.93,3.4501,70.37,15
		c1.38,0.5701,2.65,1.89,4.27,1.54c0.33-5.08-6.69-6.84-7.79-11.4c8.62,2.98,17.55,5.25,25.49,9.89
		c19.72,10.78,37.19,28.9399,40.97,51.79c1.66,11.9299-0.18,24.89-7.4,34.8099c-4.58,6.46-11.51,10.92-18.97,13.37
		c4.36,2.8301,5.09,8.28,4.86,13.0601c22.73-1.38,45.5-0.14,68.11,2.1599c40.58,3.9501,80.97,10.37,121.78,11.4301
		c34.2401-0.66,68.7-2.87,102.07-11.1c39.76-9.51,77.18-29.7101,105.59-59.28c7.01-6.4399,12.38-14.41,19.14-21.0599
		c1.25,2.99,2.33,6.0199,2.9,9.22c11.81-18.25,22.48-37.35,30.78-57.48c7.86-19.4301,12.89-40.29,12.42-61.3501
		c-0.3-10.8899-3.18-21.54-7.16-31.6199c-7.76-18.79-19.88-35.52-34.09-49.96c-7.74-7.57-17.49-12.93-27.79-16.13
		c-11.47-3.58-23.49-4.59-35.32-6.35c0.11-4.81,4.84-6.82,7.82-9.73c-5.41-0.25-10.48-2.59-15.29-4.9
		c-8.24-4.01-14.86-10.85-23.57-13.94C656.71,926.76,652.33,950.29,639.89,969.87 M706.01,932.89c2.32,0.26,4.62,0.69,6.91,1.19
		c-1.07-1.7-2.28-3.51-1.37-5.55C709.67,929.94,707.81,931.38,706.01,932.89 M252.06,968.44c-1.1,8.1-3.12,16.05-3.99,24.18
		c7.21-1.81,14.54-3.15,21.96-3.72C264.42,981.79,258.11,975.19,252.06,968.44 M130.55,1085.35c-2.68,5.84-5.72,11.53-9.32,16.86
		c-0.32,0.48-1.65,2.26-0.59,2.38c2.36-3.5599,5.05-6.9,8.14-9.86c-0.07-3.74,1.81-7.03,2.9-10.4399
		C131.4,1084.5601,130.83,1085.09,130.55,1085.35 M175.06,1092.85c-13.19,3.0801-25,9.91-36.69,16.49
		c-1.92,3.03-4.86,5.15-7.48,7.54c-14.64,11.85-29.96,22.83-45.21,33.88c-15.36,13.95-26.46,31.7-39.27,47.85
		c-11.36,14.87-24.21,28.6901-39.07,40.12c16.79-1.1799,34.99-3.33,48.31-14.6799c1.76,3.33,3.41,7.2,1.88,10.97
		c-2.69,6.1799-8.08,10.6-11.96,16c8.49-0.87,17.14-0.6901,25.48,1.24c12.85,2.96,24.89,8.52,36.97,13.66
		c6.83,2.63,13.6,5.6699,20.87,6.87c9.35-0.0701,18.74-0.51,28.01-1.66c40.06-3.71,78.26-17.2,116.15-29.95
		c12.84-4.78,26.12-9.17,39.97-9.25c8.39-0.91,16.73-2.42,24.83-4.76c0.22-2.0901,0.12-4.1801,0.15-6.26
		c-2.03-4.15-6.73-5.3401-9.88-8.25c4.49-1.2001,9.16-1.91,13.32-4.0801c9.29-4.45,15.83-13.6899,17.75-23.71
		c2.89-12.3,0.42-25.48-5.82-36.36c-9.93-17.29-26.87-29.77-45.37-36.64c1.78,3.11-0.47,6.4401-1.93,9.1901
		c-3.42-0.9301-6.35-3.25-9.6-4.65c-19.82-10.12-42.31-14.28-64.46-13.37c-2.6,0.5299-6.69-0.7201-6.01-4.05
		c1.74-3.77,5.66-5.66,9.02-7.72c-12.01-0.12-24.02-0.39-36.02-0.8201C190.99,1090.89,182.87,1090.72,175.06,1092.85
		 M750.98,1163.64c2.22-1.08,4.58-1.89,7.09-1.66c0-1.9-0.12-3.8099-0.32-5.6699C755.17,1158.45,753.48,1161.42,750.98,1163.64
		 M53.7,1229.9399c-5.28,4.4301-12.1,6.3701-18.5,8.5901c4.21,0.22,9.1,1.96,10.5,6.38c2.86-3.5601,6.4-6.77,8.25-10.99
		C54.1,1232.65,55.36,1230.61,53.7,1229.9399 M331.81,1232.5601c-3.46,0.9299-7.15,0.71-10.52,2.0399
		c2.34,0.34,4.43-0.83,6.68-1.1699c8.66-0.8501,17.32-1.8,26.05-1.5801c22.8-0.7,45.34,3.1,67.98,5.12
		c17.99,1.98,36.04,3.54,54.07,5.02c12.72,0.75,25.48,2.05,38.24,1.48c4.61,1.7101,9.6,1.29,14.42,1.0601
		c-3.93-0.72-8.11,0.5599-11.9-1.0901c-6.58-0.3099-13.24,0.39-19.77-0.84c-46.7-3.65-93.06-12.39-140.05-12.1
		C348.61,1231.2,340.06,1230.48,331.81,1232.5601 M315.69,1235.51c-8.34,0.17-16.71,1.13-24.7,3.6c-8.15,2.21-15.93,5.5-23.97,8.04
		c-22.92,7.4299-45.67,15.62-69.28,20.65c-2.82,0.6799-5.79,0.7-8.44,2.0299c3.54,0.15,6.81-1.35,10.31-1.35l-0.26-0.85
		c32.84-5.9301,63.84-18.85,95.98-27.48c7.71-1.85,15.44-4.4601,23.44-4.4C317.62,1235.49,315.74,1232.78,315.69,1235.51z"/>
	<path fill="#FFFFFF" d="M480.14,10.3c6.63-3.03,13.3-7.09,20.87-6.6c7.14,0.01,13.15,5.79,15.72,11.96c-2-0.86-2.48-3.21-4.07-4.45
		c-4.13-1.91-8.84-1.29-13.23-1.09c-13.84,2.71-26.31,9.81-37.93,17.54c-10.96,7.44-21.14,15.98-30.68,25.16
		c-8.51,8.63-16.8,17.71-22.67,28.39c-2.37,4.8-4.87,10.3-3.06,15.71c0.73,2.63,3.51,3.5,5.59,4.8c-0.27,1.26-1.33,2.16-1.99,3.23
		c-7.34,0.35-14.75,1.42-21.69,3.94c1.64-8.77,5.88-17.04,11.6-23.84c-0.17-0.76-0.52-2.29-0.7-3.05c-1.45,0-2.9,0-4.34,0
		c9.78-10.98,19.35-22.2,30-32.36C440.05,33.47,459.38,20.36,480.14,10.3z"/>
	<path fill="#FFFFFF" d="M479.96,20.97c9.48-4.3,20.03-9.47,30.65-6.65c3.08,2.26,4.5,6.06,5.37,9.65c1.87,7.63,0.89,15.7-1.4,23.12
		c-1.16-6.4-5.25-12.61-11.61-14.75c-7.83-2.7-16.22-0.08-23.46,3.18c-11.74,5.66-21.93,14.19-30.93,23.5
		c5.48-0.66,10.93-1.72,16.44-2.03c2.94-0.32,5.77,0.82,7.98,2.7c-7.45,0.43-14.45,3.62-20.59,7.7
		c-10.07,6.76-17.81,16.24-26.44,24.63c-3.16,2.81-6.53,5.87-10.85,6.61c-3.64,0.34-8.18-2.6-7.02-6.76
		c2.05-8.9,7.73-16.31,13.28-23.33C437.82,49.35,457.62,32.85,479.96,20.97z"/>
	<path fill="#FFFFFF" d="M98.9,20.66c10.65-3.29,22.03-0.63,32.13,3.3c12.98,5.34,23.42,15.02,33.11,24.9
		c12.89,12.55,25.35,25.67,39.74,36.53c-0.02,2.56,0.08,5.17,1.08,7.57c4.24,12.18,8.85,24.43,10.1,37.36
		c-3.81-3.05-7.31-6.45-10.98-9.66c0.16-5.5-2.05-10.67-4.36-15.54c-6.34-12.92-15.51-24.12-24.5-35.25
		c-9.81-11.18-19.89-22.18-31.21-31.85c-6.09-6.07-14.52-8.84-22.43-11.68c-8.19-2.34-17.12-4.92-25.55-2.4
		c-4.98,1.34-6.51,6.64-7.94,10.95c-1.25,11.74,0.58,23.56,3.39,34.95c0.87,3.11,1.06,6.5,2.91,9.26
		c2.01,6.13,3.49,12.44,4.27,18.85c0.74,6.71-1.35,13.33-1.02,20.04c0.08,1.58,0.24,3.2-0.18,4.76c-0.64-9.92,0.6-19.86-0.19-29.78
		c0.2-6.05-3.91-11.02-4.88-16.82c-3.7-15.08-8.87-31.47-3.19-46.69c0.04-0.39,0.12-1.17,0.15-1.56l1.13-0.12
		C92.52,24.67,95.13,21.6,98.9,20.66z"/>
	<path fill="#FFFFFF" d="M91.12,40.94c0.31-5.02,0.8-12.16,6.68-13.72c9.24-1.45,18.54,1.07,27.17,4.25
		c5.6,2.25,11.51,4.43,15.91,8.73c11.25,9.7,21.43,20.56,31.19,31.73c9.05,11.15,18.29,22.38,24.6,35.38
		c2.38,5.1,4.57,10.79,3.29,16.49c-1.96,2.39-5.01,3.85-8.11,2.95c-13.36-3.22-24.63-12.09-38.11-14.95
		c0.96-1.79,2.96-3.62,2.05-5.83c-1.02-3.57-4.3-5.72-7.43-7.29c-5.52-2.92-11.78-4.18-18-4.13c3.72-1.67,7.95-3.45,12.04-2
		c2.7,1.03,6.53,0.6,7.6-2.5c0.01-4.91-4.05-8.59-7.22-11.89c-8.75-7.97-19.12-14.91-30.88-17.29c-6.51-1.32-14.66,1.15-16.59,8.19
		C92.49,60.06,91.29,50.39,91.12,40.94z"/>
	<path fill="#FFFFFF" d="M519.83,40.92c1.16-4.14,0.05-8.53,0.74-12.66c0.74,14.05-0.54,28.46-5.89,41.59
		c-3.21,8.32-10.16,14.75-12.25,23.59c-5.16,16.06,0.42,33.51-5.02,49.46c0.76-13.41,0.05-26.85,0.41-40.26
		C505.82,82.35,515.27,62.37,519.83,40.92z"/>
	<path fill="#FFFFFF" d="M459.19,53.9c9.08-7.78,19.06-15.26,30.86-18.2c5.45-1.34,12.08-1.2,16.28,3.06
		c4.62,4.45,5.24,11.3,5.53,17.34c-4.96,15.65-11.65,30.69-17.85,45.85c-0.11,14.04,0.15,28.09-0.12,42.13
		c-4.72,10.07-9.09,20.37-14.21,30.24c-3.46-4.42-8.33-7.38-13.39-9.62c-3.21-1.01-3.17-5.39-1.03-7.45
		c4.11-4.58,10.66-5.24,16.33-6.47c-9.17-11.58-24.72-14.28-38.43-16.73c-2.68-0.81-6.02-0.41-8.24-2.28
		c5.03-8.83,14.48-13.42,23.29-17.62c-0.36-1.08-0.71-2.16-1.05-3.24c-16.31-0.22-32.88-0.01-48.73,4.29
		c4.18-3.67,9.81-5.28,13.9-8.97c-3.16-0.28-6.32-0.63-9.45-1.14c0.81-0.95,1.59-1.93,2.54-2.75c5.24-0.68,9.4-4.24,13.14-7.7
		c10.51-10.15,19.84-22.35,33.56-28.38c5.95-2.81,12.55-3.37,19.03-3.47c-3.28-4.37-7.71-8.56-13.31-9.48
		C464.95,52.65,462.05,53.57,459.19,53.9z"/>
	<path fill="#FFFFFF" d="M104.58,64.78c4.39-1.55,8.95,0.27,13.15,1.58c8.1,3.17,15.48,8.09,21.89,13.95
		c2.57,2.59,5.63,5.17,6.57,8.86c-3.39,0.09-6.69-1.88-10.02-0.58c-5.75,1.74-11.76,3.59-16.48,7.47c0.65,1.06,1.34,2.09,2.06,3.11
		c8.14-2.32,17-0.89,24.58,2.64c2.48,1.38,5.98,2.86,5.79,6.26c-1.82,1.26-3.81,2.22-5.88,2.97c0.27,1.21,0.55,2.41,0.85,3.62
		c12.58,0.59,23.29,8.08,34.66,12.69c4.27,1.77,8.74,3.31,13.44,3.24l-0.75,1.02c-8.29,1-16.24,3.88-23.72,7.5
		c0.25,1.21,0.54,2.41,0.86,3.61c6.09-0.53,13.84-1.14,18.41,3.65c-2.94-0.47-5.92-0.46-8.86,0.04c-12.85,1.14-25.3,4.97-37.31,9.53
		c0.41,1.1,0.82,2.21,1.23,3.32c7.51-1.35,16.7-3.78,23.2,1.51c-11.62,1.93-20.75,10.77-27.16,20.17
		c-4.38,6.13-7.17,13.17-10.54,19.85c-2.99-5.69-7.09-10.96-12.49-14.55c2.47-0.68,5-1.16,7.57-1.36
		c-3.81-7.17-9.54-13.55-16.59-17.67c1.66-0.56,3.32-1.13,4.99-1.69c-7.27-15.1-13.14-31.55-12.82-48.52
		c0.6-6.31,1.2-12.63,0.88-18.97c0.1-7.97-3.71-15.28-4.52-23.11C97.63,70.63,100.16,65.89,104.58,64.78z"/>
	<path fill="#FFFFFF" d="M368.98,98.94c6.29-6.9,14.78-11.84,24.12-13.06c-5.49,8.35-10.32,17.8-10,28.07
		c8.94-2.96,18.2-5.69,27.74-4.95c-3.55,2.52-8.15,4.48-9.6,8.95c1.43,1.8,3.59,2.67,5.75,1.5c13.62-4.37,28.02-4.36,42.15-5.13
		c-7.47,4.45-15.81,9.67-18.16,18.66c1.5,3.62,5.92,3.49,9.13,4.31c11.72,2.23,24.57,3.67,34.11,11.48
		c-4.37,0.51-8.57,2.63-11.62,5.8c-2.53,2.7-3.75,7.11-1.57,10.38c1.2,2.29,3.79,3.12,5.94,4.24c6.4,2.82,11.44,8.23,14.44,14.49
		c-2.14-0.97-5.56-3.15-7.41-0.67c-0.53,2.27,1.14,4.09,2.14,5.94c6.89,10.99,10.52,24.1,9.77,37.08c-0.24,1.75-0.31,3.66-1.27,5.2
		c-1.12-1.44-2.33-2.83-3.85-3.84c-1.62,13.38-3.2,26.77-5.17,40.11c-2.96,11.35-10.44,21.53-10.51,33.58
		c0.02,5.11,3.41,9.4,7.35,12.32c6.43,5,14.39,7.28,21.5,11.08c-4.85,2.19-10.03,3.46-15.17,4.79c9.66,7.86,18.79,16.48,26.41,26.37
		c12,15.3,20.07,33.22,26.7,51.38c3.89,10.44,7.3199,21.05,11.69,31.3c8.2599,19.49,20.17,37.08,31.12,55.1
		c10.17,16.59,18.4,34.32,25.14,52.56c15.27,42.32,20.51,87.24,29.37,131.12c1.3101,5.55,2.6,11.11,4.1201,16.61
		c3.48,10.14,11.72,17.5099,18.86,25.13c6.04,6.4,12.93,12.53,16.4,20.8c1.62,4.39,0.14,8.95-2.71,12.43
		c4.28,9.53,14.42,14.28,20.57,22.36c6.07,9.25,6.62,20.85,6.54,31.58c0.43,18.01-2.74,35.87-6.78,53.36
		c-2.89,11.25-6.16,22.42-10.36,33.26c-0.95-28.16-3.26-56.4-9.96-83.85c2.1,1.49,4.08,3.16,6.22,4.61
		c-3.59-14.72-9.88-29.08-19.84-40.63c-8.16-9.47-19.76-16.41-32.41-17.19c-15.02-0.9-30.26,3.97-42.14,13.18
		c-6.31,5.15-11.71,11.37-16.07,18.25c-3.3199,4.92-6,10.33-7.4,16.12c-0.51,0.93-0.09,3.07-1.71,2.77
		c-9.8-7.63-15.17-19.19-19.8-30.37c-2.95-6.09-2.01-13.04-2.72-19.57c-1.22-17.86-4.3701-35.86-11.5-52.39
		c-2.64-5.75-5.66-11.62-10.56-15.78c-3.47-2.95-8.13-3.39-12.42-4.23c-9.64-1.58-19.83-0.04-28.49,4.52
		c-0.54,0.33-1.11,0.49-1.72,0.49c4.84-2.77,8.68-7.08,11.5-11.84c3.8-6.39,4.92-13.92,8.4-20.45c4.7-7.81,12.52-12.96,20.18-17.53
		c-0.16-1.43-0.55-2.82-1.67-3.78c-10.71,3.16-21.17,7.81-29.7,15.19c-10.83,8.42-18.47,20.04-25.38,31.69
		c0.16-4.2401,2.93-7.51,5.37-10.71c-2.93,0.44-6.04-1.2-8.81-0.02c-4.47,3.8-8.02,8.5-11.99,12.77
		c4.94-11.14,11.48-21.85,20.63-30.05c2.88-2.69,6.66-4.3,9.28-7.25c-7.05,0.46-14.25-0.4-21.16,1.41
		c-5.58,1.36-10.9,3.52-16.26,5.54c10.23-15.82,21.37-31.44,27.31-49.51c6.94-20.1,7.62-41.59,7.02-62.64
		c2.01,3.03,3.71,6.28,5.16,9.61c0.3,0.14,0.9,0.42,1.19,0.56c0.95-4.03,2.54-7.87,3.33-11.93c2.42-12.38,1.95-25.12,1.14-37.65
		c-2.13-15.8-8.29-30.92-16.83-44.33c-0.26-2.96-0.22-6.37,2.4-8.33c4.84-3.64,11.68-2.24,16.57,0.58c3.36,1.6,4.85,5.31,7.94,7.23
		c-0.87-21.37-1.55-43.11-8.37-63.59c-1.89-5.29-5.56-9.87-10.14-13.07c-3.14-2.29-6.66-3.96-9.89-6.1
		c-2.76-1.65-3.87-5.33-2.96-8.33c1.61-6.08,6.95-10.36,12.42-12.92c0.5-0.07,1.5-0.2,2-0.26c5.82-5.36,16.4-2.46,20.17-10.52
		c-2.66,0.46-5.29,1.93-8.01,1.1c-9.53-1.96-19.46-1.44-28.79,1.28c0.94-0.88,1.9-1.76,2.86-2.63c-2.53-1.77-5.94-2.31-8.27-4.07
		c2.68-2.61,5.99-4.86,7.95-8.25c1.4-3.44-0.69-6.62-2.92-9.07c1.49-3.58,5.58-5.14,6.94-8.77c3.28-7.62,5.19-16.19,3.42-24.45
		c-1.96-11.5-10.06-21-19.55-27.3c-8.15-4.79-17.15-7.86-25.82-11.54c-7.33-2.71-14.6-5.61-22.01-8.09
		c1.53-4.48,3.8-8.71,4.71-13.39c2.1-13.02,0.4-26.28-1.87-39.15c-1.2,0-2.4,0-3.59,0c-1.61,7.8-4.16,15.4-5.5,23.25
		c-5.51-5.55-9.91-12.13-14.15-18.68c-4.28-7.49-10.68-13.96-18.4-17.82c3.07,13.63,6.1,27.32,7.49,41.25
		c0.42,7.37-1,14.67-1.89,21.95c-0.35,0.25-1.04,0.74-1.39,0.98c0.4,1.15,0.42,2.31,0.07,3.47c-1.54,6.92-2.93,13.92-5.42,20.58
		c-3.29,7.4-10.67,12.77-11.89,21.1c0.49,7.77,1.44,15.71,4.5,22.97c0.63,1.7,2.53,2.31,3.89,3.3c5.46,3.24,10.62,6.97,16.21,9.99
		c0.71-0.96,1.43-1.9,2.14-2.85c-6.49-6.3-11.09-14.54-12.81-23.44c-0.27-3.39-0.09-6.8,0.03-10.19
		c11.43,3.53,24.19,5.12,35.61,0.76c6.42-2.57,9.63-9.01,13.42-14.29c12.23,0.02,25.27,0.84,35.84,7.68
		c8.31,5.31,13.27,15.15,13.03,24.95c-0.04,2.61,0.1,5.24-0.27,7.84c-1.03,1.46-2.82,2.01-4.4,2.63
		c-13.23,4.68-26.42,9.47-39.59,14.33c-11.39,4.51-23.5,9.9-30.59,20.4c-7.29,11.73-8.12,26.01-9.26,39.42
		c-2.46,2.68-4.57,5.65-6.7,8.6c-4.89-7.73-9.06-16.38-16.32-22.19c-0.72-0.01-2.17-0.03-2.9-0.04c-1.58,2.76-1.88,5.98-2.67,9.01
		c-1.21,5.65-2.83,11.22-3.61,16.96c-13.05-2.64-26.57-4.6-39.78-1.91c-4.27,0.98-8.75,1.55-12.67,3.61
		c-2.96-8.01-4.5-16.46-7.32-24.5c-0.7-0.05-2.09-0.15-2.79-0.2c-6.77,5.92-10.36,14.51-14.48,22.3c-1.29-1.6-3.54-2.9-3.53-5.17
		c-0.05-9.13-1.21-18.19-2.53-27.21c-1.78-8.92-3.45-18.27-8.7-25.91c-4.15-5.88-11.36-8.28-17.99-10.12
		c-11.6-3.19-23.57-5.67-34.23-11.47c-9.78-5.15-18.19-12.67-24.79-21.5c4.29-7.3,9.33-15.4,17.94-17.98
		c14.19-4.27,29.46-0.66,42.52,5.54c11.11,3.96,23.44,2.39,34.47-1.13c2.3,12.67-3.95,25.22-12.88,33.88
		c0.78,0.94,1.56,1.88,2.35,2.83c6.55-4.04,12.96-8.33,19.64-12.16c3.75-6.99,4.01-15.15,5.07-22.85c0.22-5.62-3.97-9.88-6.64-14.4
		c-2.23-5.15-4.41-10.32-6.66-15.45c-3.07-6.56-3.35-13.91-4.94-20.88c-1.03,1.17-1.72,2.57-2.22,4.05
		c-1.24-1.54-1.91-3.43-2.62-5.25c-2.12-5.81-4.53-11.82-3.88-18.14c0.97-12.01,5.99-23.29,12.08-33.55
		c-1.02-0.68-2.03-1.36-3.04-2.04c-6.91,8.09-13.98,16.12-19.74,25.09c-5.02,7.84-7.06,17.25-6.99,26.47
		c-6.11-5.92-12.8-12.81-13.29-21.81c-0.14-5.49-0.06-10.99-0.03-16.48c-0.87-0.06-2.62-0.18-3.49-0.24
		c-2.56,11.19-4.97,22.42-7.5,33.62c-0.91,4.71-2.36,9.33-2.61,14.15c-0.4,6.03,1.16,11.94,1.59,17.91
		c-3.83,0.08-7.28-1.84-10.97-2.58c-6.92-1.56-13.86-3.87-21.04-3.42c-6.34,0.7-12.47,2.58-18.6,4.24
		c-3.78,1.03-7.35,2.9-11.27,3.36c-0.38,1.41-0.6,2.86-0.69,4.32c7.43,0.57,14.82,1.63,22.25,2.22c-4.31,2.5-9.68,3.89-12.48,8.36
		c-3.93,6.2-5.8,13.4-8.22,20.26c-1.66-10.41-1.75-21.02-2.08-31.55c-1.06-2.01,0.34-4.12,0.1-6.21c0.21-6.7-0.64-13.5,0.63-20.12
		c0.03-3.24-3.65-4.15-6.21-4.44c7.05-7,12.46-15.52,16.42-24.6c1.26-3.1,2.71-6.36,2.2-9.78c-1.07-1.77-3.46-1.26-5.11-0.75
		c-5.95,2.58-11.44,6.08-16.83,9.65c5.31-14.73,12.49-30.04,25.85-39.11c4.74-3.47,10.59-4.46,16.17-5.68
		c-1.63-5.54-7.33-8.62-12.81-9.15c5.66-1.92,11.64-2.73,17.51-3.78c5.42-0.55,10.88-0.16,16.32-0.21
		c-0.79-2.48-1.14-5.29-3.16-7.14c-2.89-2.75-7.02-3.58-10.84-4.1c12.15-4.58,25.71-6.03,38.36-2.64
		c-1.02-16.35-6.52-31.86-11.99-47.15c2.08,2.34,3.62,5.27,6.42,6.88c3.89,2.7,8.78,3.04,13.37,3.25c-1.23-1.92-2.55-3.79-3.84-5.66
		c9.5,6.69,21.01,9.72,32.51,10.39c22.33,0.69,44.67,0.17,67.01,0.1c14.19-1.13,28.93-1.64,42.09-7.66c0.39,0.88,0.75,1.78,1.09,2.7
		C366.89,99,368.28,98.96,368.98,98.94z"/>
	<path fill="#FFFFFF" d="M199.24,129.31c1.87-0.94,3.04-2.74,4.29-4.34c1.94,2.09,4.16,3.88,6.29,5.78
		c-4.97-0.05-9.96-0.15-14.89,0.59C195.45,129.29,197.97,130.47,199.24,129.31z"/>
	<path fill="#FFFFFF" d="M356.71,183c4.09,2.97,7.15,7.17,9.7,11.5c5.25,8.49,11.56,16.27,18.09,23.79l1.05,0.68
		c1.42-7.06,3.48-13.98,5.07-21c1.27,9.27,2.28,18.79,0.4,28.06c-0.58,5.93-5.04,10.87-4.76,16.96c-7.98-1.37-15.58,2.08-23.14,4.03
		c-0.99-2.29-2.61-4.43-2.97-6.92c1.65-9.61,2.82-19.42,1.72-29.17C360.6,201.55,359.02,192.19,356.71,183z"/>
	<path fill="#FFFFFF" d="M234.38,219.82c2.02-9.52,8.11-17.46,14.27-24.71c-4.68,10.93-7.69,23.7-3.02,35.15
		c1.29,4.72,3.84,8.97,5.31,13.6c-0.31,0.58-0.94,1.75-1.25,2.34c-6.48-3.53-14.52-5.79-21.7-3.08c-7.62,3.12-13.13,9.61-20.4,13.33
		c-0.72-5.85-2.32-11.73-1.27-17.65c1.96-9.56,4.23-19.06,6.25-28.61c-0.22,8.01,5.01,14.62,10.09,20.25
		c3.2,3.53,6.83,6.68,10.74,9.4C232.88,233.16,232.66,226.35,234.38,219.82z"/>
	<path fill="#FFFFFF" d="M135.88,209.96c4.63-3.02,9.36-5.96,14.46-8.15c-1.94,7.27-5.83,13.84-9.92,20.09
		C139.28,217.78,137.29,213.98,135.88,209.96z"/>
	<path fill="#FFFFFF" d="M390.18,244.34c13.31,5.18,26.83,9.87,39.79,15.9c9.14,4.08,17.08,11.25,21.37,20.36
		c2.98,6.23,3.46,13.42,2.18,20.14c-0.15-9.12-4.56-17.97-11.62-23.71c-7.73-6.25-17.75-9.22-27.55-9.57
		c-0.88-1.54,1.75-1.14,2.5-0.9c4.29,1.08,9.11,0.13,12.83-2.18c-6.69-2.15-13.84-2.8-20.17-6
		C402.31,254.8,396.77,248.83,390.18,244.34z"/>
	<path fill="#FFFFFF" d="M216.26,255.31c6.08-4.48,12.42-10.77,20.65-9.49c4.74,0.87,11.85,1.71,12.4,7.77
		c2.47-1.76,2.86-5.09,4.61-7.42c1.51,6.63,2.53,13.45,5.18,19.76c3,6.03,8.14,10.77,10.78,17.01c0.6,7.67-1.01,15.45-3.46,22.69
		c-2.97,2.35-6.39,4.07-9.5,6.22c4.74-7.33,7.89-16.07,7.01-24.89c-0.37-2.34-0.91-4.65-1.18-7.01c-4.54,0.25-8.65,2.66-13.17,3.17
		l0.11,0.42c-1.18,0.12-2.35,0.23-3.52,0.34c1.13-0.65,2.19-1.73,3.63-1.34c3.7-1.6,8.44-3.93,8.46-8.59
		c0.32-4.79-3.66-8.14-6.74-11.18c1.41-3.17-1.54-6.16-4.41-7.01c-5.33-2.28-10.75,0.68-15.93,1.9c1.61,1.67,4.1,1.88,6.09,2.89
		c3.94,1.49,7.46,4.6,11.88,4.36c-1.19,3.73-3.13,7.45-6.56,9.57c-3.31,2.42-8.27,2.11-11.17-0.82c-4.86-4.75-5.62-11.9-6.51-18.27
		c-3.11,0.68-6.57,1.36-8.33,4.32c-1.16,0.58-2.33,1.15-3.49,1.73c1.2,3.76,1.93,7.67,3.59,11.27c-2.42-2.89-3.54-7.02-6.77-9.13
		c-3.19,0.24-6.37,0.5-9.57,0.47C206.06,261.98,211.38,258.93,216.26,255.31z"/>
	<path fill="#FFFFFF" d="M358.31,245.98c0.9,1.77,1.77,3.55,2.67,5.33c6.67-1.62,13.2-3.87,19.97-5.06
		c6.7-0.64,11.68,4.53,16.41,8.43c4.39,3.8,9.48,6.57,14.66,9.11c-3.4-0.04-6.77-0.39-10.14-0.75c-2.42,2.33-3.94,5.34-5.85,8.06
		c-0.2,0.43-0.61,1.28-0.82,1.71c1.36-3.7,2.43-7.5,3.49-11.3c-1.09-0.63-2.17-1.23-3.24-1.85c-2.87-3.97-7.41-7.33-12.57-6.42
		c-3.63,0.83-7.43,1.54-10.67,3.45c4.93,0.92,9.59,2.79,13.85,5.41c-1.34,4.94-3.21,10.67-8.28,12.9
		c-4.13,1.87-8.91-0.52-11.49-3.87c-2.45-2.88-3.13-6.68-4.28-10.16c-4.19,3.87-9.55,8.45-8.06,14.87
		c2.45,3.96,7.01,6.76,11.73,6.51l-1.49,0.55l1.22,1.13c-4.99-1.95-10.34-2.83-15.19-5.16c-4.87,10.87-1,23.69,5.4,33.11
		c-2.95-2.39-6.23-4.31-9.48-6.24c-2.82-7.21-4.26-15.06-4.06-22.79c2.53-7.07,8.77-12.02,11.56-18.95
		C355.63,258.12,357.44,252.14,358.31,245.98z"/>
	<path fill="#FFFFFF" d="M152.77,261.31c8.9-2.4,18-5.73,27.36-4.01c5.52,1.16,11.12,2.2,16.4,4.2c-2.93,0.57-5.84,1.23-8.8,1.62
		c-0.05,1.3-0.09,2.59-0.12,3.89c6.99,0.7,14.06,1.4,21.04,0.19c2.34,3.26,4.35,6.74,6.56,10.09c-11.69-3.28-24.63-4.66-36.14,0
		c-7.06,2.91-11.41,9.51-15.7,15.44c0.71-2.73,0.73-5.53,0.57-8.31c-5.47,2.32-10.55,5.46-15.94,7.94c2.07-5.46,3.63-11.35,7.3-16
		c5-4.5,11.83-5.97,17.76-8.82c-0.25-0.85-0.76-2.55-1.02-3.4c-7.01-0.31-13.95-1.38-20.94-1.91
		C151.6,261.83,152.16,261.52,152.77,261.31z"/>
	<path fill="#FFFFFF" d="M242.25,258.72c2.07,0.03,4.11,0.51,5.92,1.57c-0.12,0.25-0.36,0.75-0.48,1.01
		C245.77,260.69,243.9,259.86,242.25,258.72z"/>
	<path fill="#FFFFFF" d="M217.82,263.46c1.39-1.17,2.67-2.44,3.99-3.69c0.65,5.51,2.31,11.11,5.91,15.43
		c3.37,3.99,9.31,6.06,14.22,3.79c4.78-1.61,7.68-6.07,9.96-10.17c2.25,1.28,4.14,5.51,1.37,7.46c-4.54,3.75-10.66,4.74-16.31,5.66
		c-5.02-0.65-10.4-2-13.93-5.89C219.99,272.57,218.33,268.01,217.82,263.46z"/>
	<path fill="#FFFFFF" d="M389.29,263.38c1.09-0.5,2.14-1.13,3.33-1.4c1.22,0.73,1.64,1.76,1.26,3.09
		c-1.21,5.16-3.63,10.48-8.42,13.24c-7.07,4.41-16.08,2.96-23.34-0.21c-2.11-1.05-4.63-2.42-4.84-5.05
		c0.51-1.99,1.55-3.87,3.15-5.18c2.16,7.51,10.47,13.59,18.33,10.82C384.86,276.17,388.42,269.68,389.29,263.38z"/>
	<path fill="#FFFFFF" d="M143.82,298.98c5.21-3.14,10.8-5.66,16.17-8.54c0.16,4.53-0.01,9.07-0.88,13.53
		c-0.39,16.02,8.16,31.27,20.64,40.97c-3.14,1.62-5.97,3.71-8.52,6.15c-4.23,1.08-8.53,2.06-12.41,4.17
		c0.06,1.32,0.36,2.61,0.85,3.84c4.48,0.35,8.94-1.08,13.36-0.61c-5.01,3.85-9.57,8.44-12.39,14.17
		c-5.53,10.62-5.8,22.82-7.52,34.41c2.79-2.6,4.65-6,7.34-8.69c2.33-2.35,5.42-3.85,8.65-4.51c-10.93,13.06-15.43,30.43-15.2,47.21
		c-0.33,11.41,0.91,22.73,2.23,34.05c1.96,11.91,2.06,24.26,6.01,35.78c5.88,15.88,14.09,32.04,11.75,49.51
		c1.25,0.32,2.52,0.53,3.83,0.51c1.04-5.59,4.15-10.96,8.68-14.44c1.42-1.4,2.71,0.34,3.55,1.4c-0.83,12.68,0.55,25.38,2.59,37.88
		c7.02,38.61,20.8,75.61,36.65,111.38c1.22-0.09,2.45-0.17,3.68-0.25c0.35-5.6-0.17-11.31,1.52-16.75
		c4.07,6.84,6.24,14.83,11.75,20.7599c13.01,15.63,31.16,25.52,48.46,35.6201c15.39,9.23,31.4,18.4,43.04,32.39
		c5.31,6.01,8.89,13.23,12.71,20.22l0.92,0.76c0.85-6.86-0.08-14.14,3.09-20.52c1.12-2.37,3.22-4.76,6.1-4.4
		c1.57,1.8,4.04,3.13,6.48,2.48c2.3-0.65,3.76-2.72,4.77-4.75c3.11-6.32,4.72-13.35,8.62-19.27c3.02-4.49,8.75-6.05,13.82-6.64
		c10.26-0.53,18.04,7.4,24.9,13.92c0.14-0.8199,0.3-1.6299,0.49-2.42c0.72,5.55,0.36,11.17,0.45,16.76
		c-0.1,22.98,0.45,45.98-0.89,68.94c-0.28,4.67,0.06,9.38-0.64,14.02c-10.8,17.65-22.34,34.94-31.87,53.34
		c-9.94-14.71-20.69-29.34-34.99-40.14c-7.21-5.77-15.46-10.54-24.6-12.34c1.8,5.13,3.85,10.17,5.91,15.21
		c-8.27-7.08-15.43-15.36-22.04-23.97c-4.45-6.03-8.98-12.08-12.03-18.97c-5.14-11.63-8.81-23.85-11.99-36.14
		c-1.49-5.61-3.23-11.18-3.93-16.96c-4.3-9.63-9.59-18.83-15.53-27.54c-7.29-10.39-15.68-21.12-27.82-25.99
		c-2.97-0.87-7.36-3.13-9.39,0.45c-0.67,2.76,1.77,5.1801,3.05,7.47c-4.3-1.22-8.7-2.3-12.73-4.28
		c-8.57-5.36-13.98-14.12-20.35-21.69c-0.3,1.46-0.59,2.9301-0.88,4.41c-1.71-1.01-2.68-2.82-3.8-4.37
		c-9.6-14.49-18.81-29.61-23.61-46.44c-2.19-7.5-2.82-15.29-3.8-22.99c-0.06-8.75-1.24-17.43-1.22-26.18
		c-1.01-8.25-0.46-16.57-1.64-24.79c-1.25-21.9-7.83-42.98-13.88-63.92c-5.73-20.33-12.13-40.91-11.85-62.25
		c0.36-25.19,8.18-49.39,14.75-73.48c-3.03,0.44-6.11,1-9.15,0.33c4.2-1.8,6.72-5.79,8.32-9.88c-0.24-4.31,1.13-10.94-4.44-12.32
		c5.17-4.51,9.24-10.76,10.19-17.6C153.22,324.7,146.86,312.36,143.82,298.98z"/>
	<path fill="#FFFFFF" d="M163.05,301.7c7.82,9.64,17.57,17.82,28.95,22.93c9.79,4.67,20.46,6.83,30.84,9.75
		c4.83,1.32,9.77,2.89,13.71,6.1c3.38,3.01,5.15,7.34,6.64,11.51c4.45,13.42,5.41,27.63,6.45,41.62
		c-5.73-7.93-12.72-15.35-21.67-19.59c-7.8-3.36-15.85-6.06-23.93-8.66c3.86-0.36,7.67-0.98,11.5-1.54
		c-10.33-9.55-24.84-12.05-38.4-12.78c2.77-2.5,6.56-3.29,9.51-5.51c-5.49-4.1-10.85-8.55-14.88-14.15
		C165.47,322.93,162.15,312.24,163.05,301.7z"/>
	<path fill="#FFFFFF" d="M404.36,332.28c13.15-4.96,26.38-9.71,39.64-14.41c-1.26,3.57,1,6.59,3.04,9.27
		c-2.68,4.92-7.68,7.77-11.8,11.32c-0.01,0.28-0.01,0.85-0.02,1.13c2.85,1.25,5.96,1.98,8.51,3.83c-8.86,6.76-19.54,12.26-31,11.67
		c-0.23,1.26-0.39,2.54-0.47,3.84c1.8,0.56,3.8,0.99,5.1,2.5c-9.12,6.66-18.66,14.33-30.37,15.09c-7.37,3.4-13.12,9.5-17.52,16.2
		c0.81-13.54,1.24-27.69,7.37-40.1C382.43,342.08,393.86,336.73,404.36,332.28z"/>
	<path fill="#FFFFFF" d="M443.91,349.87c7.98-3.13,16.67-4.51,25.22-3.66c-8.22,2.7-16.87,6.69-21.39,14.48
		c-3.1,5.23-3.03,13.37,2.74,16.75c7.01,4.22,15.22,8.22,18.25,16.43c5.96,17.3,7.37,35.75,8.24,53.9
		c-5.87-3.72-13.45-5.71-20.12-3.01c-6.07,2.37-8.85,10.82-5.05,16.2c6.72,10.96,11.74,22.96,14.48,35.54
		c2.49,15.24,2.36,30.98-0.92,46.11c-3.35-4.71-5.82-10.06-9.45-14.54c-0.09,11.63,1.47,23.26,0.43,34.89
		c-0.51,13.24-2.39,26.52-6.57,39.13c-7.12,21.71-21.39,39.92-33.55,58.95c11.83-3.69,23-10.19,35.65-10.7599
		c-11.73,11.34-20.83,25.6899-25.01,41.54c1.2,0.09,2.72,2.15,3.81,0.87c5.57-6.31,10.74-13,16.91-18.75
		c-3.48,5.26-2.22,11.78-3.64,17.65c1.19,0.59,2.42,1.11,3.69,1.56c8.95-20.66,23.31-40.38,44.3-49.89
		c-4.73,4.2-9.42,8.82-11.69,14.87c-3.06,7.91-4.98,16.69-11.21,22.89c-3.92,3.62-8.06,7.23-12.85,9.63
		c-6.92,2.12-12.66,7.5099-15.26,14.24c-4.11,8.88-4.18,18.83-6.14,28.23c-3-3.34-8.49-5.74-12.6-2.94
		c-3.95,3.03-5.31,8.27-5.52,13.03c-7.03-6.05-15.9-12-25.65-9.91c-4.15,1.46-8.92,2.29-11.92,5.81c-4.72,5.31-6.6,12.36-9.29,18.78
		c-0.96,2.18-1.75,4.68-3.79,6.13c-1.94-0.06-3.14-1.91-4.47-3.06c-8.87-0.59-12.83,9.52-13.04,16.89
		c-6.97-12.0099-17.18-21.78-28.46-29.73c-18.09-12.76-38.46-22-56.11-35.44c-6.83-5.29-13.21-11.27-18.17-18.38
		c-3.31-5.51-5.2-11.84-9.14-16.96c-1.16-1.79-3.9-1.9301-5.11-0.1201c-1.87,3.28-1.55,7.19-1.9,10.83
		c-6.97-14.22-12.25-29.25-17.69-44.12c-9.58-28.74-17.98-58.38-18.68-88.86c-0.2-4.04,1.49-9.28-2.63-11.92
		c-5.27-2.72-10.02,2.86-12.28,7.05c-1.05-1.49-0.84-3.43-1.13-5.13c-2.06-17.22-12.89-31.98-14.68-49.27
		c-2.29-18.83-5.31-37.67-5.03-56.69c0.57-14.1,3.7-28.71,12.41-40.15c2.6-3.42,5.82-6.33,8.22-9.9
		c-6.83,1.07-14.44,0.95-19.79,6.08c1.31-9.34,3.21-19.13,9.41-26.58c2.51-3.48,6.18-5.78,9.4-8.52c-0.55-1.76-1.17-3.49-2.12-5.06
		c6.56,0.96,14.4,0.83,19.25,6.06c-3.12,2.91-7.3,4.21-11.37,5.13c0.04,1.25,0.09,2.52,0.15,3.78c10.65,1.02,22.15,0.6,31.64,6.32
		c5.53,2.98,11.95,4.32,16.79,8.54c9.89,8.15,16.66,19.52,21.44,31.26c1.58,7,2.01,14.37,5.11,20.96c2,4.34,5.38,7.99,9.48,10.42
		c3.95,2.37,7.21,5.69,11.11,8.14c8.61,5.65,17.93,10.92,28.29,12.35c16.13,0.37,32.09-7.3,41.96-20.07
		c2.39-3.66,6.75-5.18,9.46-8.52c5.04-5.82,6.8-13.87,6.71-21.4c-0.16-1.36,0.8-2.44,1.36-3.57c4.5-7.05,6.19-15.7,12-21.93
		c7.47-8.23,18.15-12.24,27.8-17.22C417.9,365.62,429.63,355.48,443.91,349.87z"/>
	<path fill="#FFFFFF" d="M196.22,357.39c3.21,1.38,6.73,2.15,9.61,4.2c-2.81,0.28-5.67,0.25-8.36,1.18
		C197.68,360.84,197.21,359.02,196.22,357.39z"/>
	<path fill="#FFFFFF" d="M218.3,374.37c1.39-0.19,2.73,0.22,3.92,0.93c5.3,1.12,9.34,5.22,14.1,7.5c0.21,0.47,0.64,1.39,0.86,1.85
		c5.65,3.95,8.56,10.47,12.84,15.69c0.44-0.17,1.33-0.53,1.77-0.71c1.05,1.09,2.21,2.13,3,3.45c-0.42,1.72-0.88,3.43-1.05,5.2
		c-2.17-3.55-3.85-7.4-6.36-10.74c-1.34-1.7-2.02-4.1-4.1-5.06l-0.5-0.43c-0.15-0.42-0.46-1.28-0.61-1.7
		c-2.92-2.64-5.34-5.85-8.67-7.99C229.12,378.58,223.58,376.55,218.3,374.37z"/>
	<path fill="#FFFFFF" d="M342.29,377.95c4.59,5.17,8.19,11.08,11.87,16.9c2.72,4.62,5.64,9.3,6.47,14.71
		c1.23,8.73,1.21,18.46-4,25.99c-5.07,6.72-13.65,9.36-21.64,10.53c-7.24,1.03-14.56,1.24-21.85,1.56c-0.04-1.6-0.37-3.12-1.12-4.52
		c5.66-1.6,11.67-2.93,16.26-6.85c2.98-2.25,3.66-6.12,4.94-9.4c2.59-6.95,4.99-14.49,3.2-21.94
		C337.94,395.86,340.32,386.94,342.29,377.95z"/>
	<path fill="#FFFFFF" d="M259.92,400.98c3.49-6.71,6.73-13.76,11.77-19.46c1.9,8.26,4.21,16.45,7.23,24.37
		c-0.29,9.46,2.25,18.99,7.02,27.15c4.26,6.19,12.13,7.99,18.99,9.74c3.21,0.05,0.8,3.47,0.91,5.22
		c-10.89-0.42-22.16,1.63-32.69-2.02c-7.11-2.3-12.17-8.83-13.68-16.01C257.25,420.58,254.89,409.89,259.92,400.98z"/>
	<path fill="#FFFFFF" d="M361.33,399.55c1.39-2.15,2.99-4.15,4.61-6.12c0.08,2.85,0.05,5.69,0.06,8.55c0.73-0.27,2.2-0.82,2.93-1.09
		c-1.65,3.05-2.54,6.5-4.68,9.27C364.2,406.4,362.55,403,361.33,399.55z"/>
	<path fill="#FFFFFF" d="M284.06,404.13c9.68-2.6,19.76-4.54,29.82-3.41c6.02,0.26,11.87,1.7,17.81,2.55
		c3.56,8.13,0.05,17-2.82,24.77c-1.65,7.46-10.15,9.51-16.57,11.02c0.14-8.59-1.24-17.07-1.31-25.64
		c5.69-0.59,11.52-1.69,16.52-4.62c-0.52-0.98-1.07-1.95-1.64-2.89c-2.19,0.37-3.95-1.03-5.86-1.79c-4.08-1.75-8.63-1.39-12.96-1.26
		c-4.03,0.26-8.15-0.14-12.11,0.83c0.02,1.43,0.04,2.87,0.07,4.31c-4.08-0.06-8.18-0.12-12.19,0.66
		C282.88,407.05,283.06,405.45,284.06,404.13z"/>
	<path fill="#FFFFFF" d="M285.56,412.96c7.16,0.09,14.23,1.52,21.41,1.07c0.79,7.61,1.36,15.24,1.78,22.89
		c-5.37-1.56-10.92-2.67-15.91-5.31c1.1-3.05,5.68-4.7,4.4-8.6c-1.77-4.77-7.55-5.69-11.41-8.08
		C285.76,414.44,285.63,413.45,285.56,412.96z"/>
	<path fill="#FFFFFF" d="M289.03,430.8c-2.39-3.76-4.02-8.07-4.9-12.43c3.4,1.79,7.58,2.7,9.92,6
		C292.1,426.28,289.84,428.07,289.03,430.8z"/>
	<path fill="#FFFFFF" d="M344.67,447.03c-1.64,2.73-4.55,4.51-6.81,6.72c-0.48-1.46-1.01-2.89-1.56-4.32
		C339.19,449.14,342.31,448.94,344.67,447.03z"/>
	<path fill="#FFFFFF" d="M278.31,450.5c2.13,0.77,4.37,1.21,6.63,1.43c-0.02,0.8-0.05,2.4-0.06,3.2c-2.47-0.86-4.33-4.03-6.98-3.43
		C278,451.4,278.21,450.8,278.31,450.5z"/>
	<path fill="#FFFFFF" d="M308.11,451.71c7.63-1.1,15.43,0.04,22.99-1.66c1.07,0.87,2.21,1.71,2.96,2.9c-1,1.76-3.25,2.39-4.95,3.32
		c-8.21,3.34-17.23,4.44-26.05,4.06c-5.33-0.4-11.81-1.34-14.82-6.35c0.19-0.48,0.56-1.45,0.75-1.93
		C295.37,452.1,301.74,451.72,308.11,451.71z"/>
	<path fill="#FFFFFF" d="M445.05,715.1c7.34-13.64,20.16-25.2,35.82-27.8c7.39-0.81,15.08-0.68,22.16,1.83
		c5.06,2.37,7.83,7.63,10.38,12.34c7.04,14.23,10.32,30.01,12.13,45.6801c2.03,16.56,1.91,33.38-0.5,49.89
		c-4.18,34.3-19.62,65.92-25.23,99.91c-6.04,31.76-14.33,63.04-23.03,94.16c-13.1-3.64-26.42-6.54-39.9-8.35
		c-11.29-1.36-22.72-2.62-34.03-0.72c8.16-25.98,10.93-53.22,14.21-80.13c2.34-21.59,4.65-43.16,5.87-64.85
		c0.45-27.53,1.72-55.07,0.75-82.61c5.95,4.12,11.15,9.32,17.27,13.16c0.97-13.51,1.89-27.01,3.03-40.5
		C444.04,723.08,444.24,719.03,445.05,715.1z"/>
	<path fill="#FFFFFF" d="M442.19,712.77c1.61-8.23,6.93-16.45,15.45-18.66C451.26,699.18,446.05,705.62,442.19,712.77z"/>
	<path fill="#FFFFFF" d="M191.44,697.22c1.95,3.01,4.15,5.88,7.1,7.98c-5.42,32.54-10.93,65.11-14.39,97.92
		c-0.96,12.52-1.94,25.08-1.54,37.65c-8.89-24.26-15.39-49.33-20.47-74.64c-1.01-14.66,2.49-29.26,7.96-42.79
		c-1.03-1.01-2.08-2-3.19-2.9c2.03-5.42,7.66-8.48,13.03-9.69c3.57-1.18,7.41-0.44,11.02-1.41
		C191.13,705.29,192.01,701.27,191.44,697.22z"/>
	<path fill="#FFFFFF" d="M202.26,704.97c4.53,5.66,8.86,11.83,15.07,15.77c8.28,4.23,17.55,5.88,26.51,8.06
		c-2.99-4.27-7.91-7.44-9.71-12.36c10.43,3,18.53,10.73,25.05,19.1c7.89,10.41,14.81,21.62,20.1,33.58
		c-3.94,18.2-8.78,36.32-10.73,54.9c-3.24,32-5.29,64.19-11.35,95.85c-6.86,39.24-14.11,78.41-20.62,117.7
		c-24.58,7.3201-49.27,15.03-72.06,27c-11.17,7.7001-21.64,16.42-31.35,25.89c3.53-12.08,9.25-23.35,14.4-34.7899
		c7.19-15.77,15.27-31.41,18.83-48.5001c6.78-29.81,15.08-59.46,17.65-90.02c1.6-17.66,1.4-35.4301,1.81-53.14
		c0.44-14.68-0.41-29.39,0.9-44.04c0.5-13.33,2.14-26.59,3.87-39.81C193.97,755.02,198.26,730.01,202.26,704.97z"/>
	<path fill="#FFFFFF" d="M440.24,722.01c0.3-2.28-0.22-4.69,0.77-6.83c0.7,1.38,0.64,2.98,0.28,4.47c-1.08,4.38-1.3,8.92-1.35,13.42
		c-1.01,9.22-1.72,18.48-2.06,27.76c-5.98-4.71-11.89-9.5-17.89-14.17c0.24-4.69,0.69-10.14,4.35-13.54
		c5.78-1.5,9.33,4.4,13.56,7.17C438.55,734.18,439.36,728.09,440.24,722.01z"/>
	<path fill="#FFFFFF" d="M670.07,752.48c0.1-0.25,0.3-0.76,0.39-1.02c3.9,4.45,8.25,8.5,12.03,13.04c0.06,0.3,0.18,0.88,0.23,1.17
		C678.32,761.46,673.68,757.43,670.07,752.48z"/>
	<path fill="#FFFFFF" d="M588.25,766.33c10.03-5.21,21.59-8.13,32.9-6.93c11.94,1.2599,22.48,8.42,29.87,17.62
		c6.23,7.79,10.93,16.78,14.13,26.2c-3.34-2.1899-6.22-4.98-9.56-7.16c6.36,27.84,8.28,56.74,4.7599,85.11
		c-2.8199,23.56-9.4,46.81-20.53,67.83c-5.47,10.5-9.82,21.94-18.25,30.55c-11.06,11.35-26.31,17.36-41.44,21.02
		c-8.25,2.35-17.01,1.66-25.3-0.09c-17.13-3.81-33.59-10.33-49.15-18.37c-4.5-5.57-4.76-13.21-5.62-20.04
		c0.01-12.83,2.69-25.52,6.37-37.76c6.75-19.28,14.14-38.32,21.44-57.39c4.31-10.72,8.03-21.7,12.74-32.23
		c2.98,6.34,5.6,12.96,9.28,18.91c2.22-19.22,3.28-39.0099,10.64-57.15C566.78,784.18,575.93,772.89,588.25,766.33z"/>
	<path fill="#FFFFFF" d="M281.06,778.26c4.5,15.86,8.4,32.07,15.63,47c4.31,8.37,10.19,15.8,16.02,23.16
		c8.3,10.09,17.6,19.54,28.46,26.91c-2.71-6.96-5.3-13.97-8.21-20.84c13.73,5.5,24.79,16,34.33,27.04
		c7.11,8.42,13.55,17.43,19.08,26.96c1.39-0.3,1.61-1.89,2.27-2.89c8.54-17.25,19.31-33.2599,29.23-49.72
		c-1.38,16.73-3.11,33.47-5.04,50.16c-3.09,26.2-6.29,52.6-14.36,77.83c-24.98,0.72-50.2,2-74.53,8.15
		c-4.91,1.08-9.49,3.29-14.45,4.18l0.18,1.13c5.04,2.27,11.11,3.57,14.36,8.48c-1.92,3.81-6.02,5.48-9.57,7.39
		c-11.4,5.14-23.47,8.55-35.43,12.1199c-12.87,3.6901-25.76,7.3101-38.59,11.14c2.26-13.3699,4.77-26.7,6.89-40.1
		c9.78-2.38,19.76-4.17,29.83-4.58c-1.04-2.15-2.86-3.75-4.39-5.51c-6.65-7.37-13.31-14.73-19.67-22.34
		c3.39-18.25,6.54-36.54,9.77-54.81c3.95-23.67,5.79-47.61,8.15-71.47C272.27,817.56,276.35,797.79,281.06,778.26z"/>
	<path fill="#FFFFFF" d="M530.29,779.22c4.95,11.6201,10.98,23.8,22,30.78c-2.17,10.02-4,20.17-4.47,30.43
		c-3.12-4.43-5.04-9.67-7.27-14.6c-0.27,0.16-0.81,0.47-1.08,0.63c-11.37,29.84-23.23,59.5-34.03,89.56
		c-5.32,14.01-8.7,28.91-8.93,43.93c0.18,8.58,0.97,18.04,6.57,24.97c8.43,4.69,17.41,8.34,26.38,11.88
		c12.73,4.6,25.88,8.68,39.5099,9.13c7.92-0.19,15.57-2.54,23.08-4.87c13.6-4.48,26.86-11.68,35.83-23.11
		c6.66-8.3,10.54-18.32,15.45-27.66c12.86-24.46,19.73-51.82,21.75-79.28c1.32-16.35,0.9-32.84-1.23-49.1
		c-0.88-4.86-0.8199-9.86-2.48-14.56c1.73,1.03,1.3,3.12,1.57,4.85c6.65,29.36,9.04,59.54,9.21,89.6c1.1,0.26,2.2,0.53,3.31,0.81
		c0.95,1.76,2,3.48,3.21,5.09c-3.35-2.13-7.08-3.46-10.77-4.83c-13.9901,19.88-18.31,44.63-31.2,65.12
		c-3.43,6.21-8.33,11.38-12.59,17c-9.1,11.16-22.14,18.7-36.04,22.11c-22.22,5.4901-46.42,2.1-66.52-8.77
		c-9.09-6.08-18.48-12.8-29.58-14.36c-3.02-0.56-5.72,0.92-7.95,2.77c1.45,2.33,2.88,4.7,4.14,7.15c-2.85,0.08-5.67,0.5-8.49,0.81
		c7.34-26.22,14.35-52.55,20.18-79.14c3.42-14.82,5.24-30.01,9.75-44.57C518.47,840.94,529.67,810.91,530.29,779.22z"/>
	<path fill="#FFFFFF" d="M639.89,969.87c12.44-19.58,16.82-43.11,29.52-62.55c8.71,3.09,15.33,9.93,23.57,13.94
		c4.81,2.31,9.88,4.65,15.29,4.9c-2.98,2.91-7.71,4.92-7.82,9.73c11.83,1.76,23.85,2.77,35.32,6.35c10.3,3.2,20.05,8.56,27.79,16.13
		c14.21,14.44,26.33,31.17,34.09,49.96c3.98,10.08,6.86,20.73,7.16,31.6199c0.47,21.0601-4.56,41.92-12.42,61.3501
		c-8.3,20.13-18.97,39.23-30.78,57.48c-0.57-3.2001-1.65-6.23-2.9-9.22c-6.76,6.6499-12.13,14.62-19.14,21.0599
		c-28.41,29.5699-65.83,49.77-105.59,59.28c-33.37,8.23-67.83,10.4399-102.07,11.1c-40.81-1.0601-81.2-7.48-121.78-11.4301
		c-22.61-2.2999-45.38-3.5399-68.11-2.1599c0.23-4.78-0.5-10.23-4.86-13.0601c7.46-2.45,14.39-6.91,18.97-13.37
		c7.22-9.9199,9.06-22.88,7.4-34.8099c-3.78-22.8501-21.25-41.01-40.97-51.79c-7.94-4.64-16.87-6.91-25.49-9.89
		c1.1,4.5601,8.12,6.3201,7.79,11.4c-1.62,0.35-2.89-0.97-4.27-1.54c-21.44-11.5499-46.17-16.22-70.37-15
		c4.81-5.15,11.92-7.37,18.74-8.14c0.1-0.9199,0.28-2.74,0.37-3.6599c-13.41,1.1699-26.9-0.78-40.35-0.5601
		c-12.31-0.22-24.85-0.6799-36.81,2.75c-12.97,3.42-24.69,10.13-36.24,16.74c-1.52,1.3101-2.28,3.3201-3.94,4.53
		c-9.27,8.01-19.24,15.16-28.9,22.6799c4.36-8.2,10.37-15.4399,16.1-22.73c13.82-16.4299,29.75-31.12,47.44-43.2899
		c24.76-12.92,51.7-20.8401,78.4-28.67c17.62-5.3199,35.45-9.9301,52.98-15.57c8.71-3.03,17.7-5.81,25.36-11.1
		c2.59-1.85,4.83-4.96,3.69-8.28c-1.29-3.33-4.77-5.07-7.66-6.83c15.4-4.86,31.53-6.53,47.52-8.16c6.05,0.14,12.01-1.2,18.06-1.06
		c21.38-0.06,43.1-1.32,64.15,3.24c7,1.41,13.36,4.86,20.28,6.52c8.45,1.41,16.97-0.14,25.36-1.17c0.95-1.2-0.87-2.06-1.44-2.89
		c-1.79-1.7-3.19-3.75-4.4-5.87c2.35,0.01,4.79-0.08,7.06,0.72c8.64,2.7,16.14,7.9,23.56,12.93c19.35,10.64,42.43,14.22,64.14,10.4
		c16.53-2.95,32.36-11.22,43.11-24.28C631.24,981.75,636.32,976.34,639.89,969.87z"/>
	<path fill="#FFFFFF" d="M706.01,932.89c1.8-1.51,3.66-2.95,5.54-4.36c-0.91,2.04,0.3,3.85,1.37,5.55
		C710.63,933.58,708.33,933.15,706.01,932.89z"/>
	<path fill="#FFFFFF" d="M130.55,1085.35c0.28-0.26,0.85-0.7899,1.13-1.0599c-1.09,3.4099-2.97,6.7-2.9,10.4399
		c-3.09,2.96-5.78,6.3-8.14,9.86c-1.06-0.12,0.27-1.9,0.59-2.38C124.83,1096.88,127.87,1091.1899,130.55,1085.35z"/>
	<path fill="#FFFFFF" d="M175.06,1092.85c7.81-2.13,15.93-1.96,23.94-2.4c12,0.4301,24.01,0.7001,36.02,0.8201
		c-3.36,2.0599-7.28,3.95-9.02,7.72c-0.68,3.33,3.41,4.58,6.01,4.05c22.15-0.91,44.64,3.25,64.46,13.37c3.25,1.4,6.18,3.72,9.6,4.65
		c1.46-2.75,3.71-6.0801,1.93-9.1901c18.5,6.87,35.44,19.35,45.37,36.64c6.24,10.88,8.71,24.0599,5.82,36.36
		c-1.92,10.02-8.46,19.26-17.75,23.71c-4.16,2.17-8.83,2.88-13.32,4.0801c3.15,2.9099,7.85,4.1,9.88,8.25
		c-0.03,2.08,0.07,4.1699-0.15,6.26c-8.1,2.34-16.44,3.85-24.83,4.76c-13.85,0.08-27.13,4.47-39.97,9.25
		c-37.89,12.75-76.09,26.24-116.15,29.95c-9.27,1.15-18.66,1.59-28.01,1.66c-7.27-1.2001-14.04-4.24-20.87-6.87
		c-12.08-5.14-24.12-10.7001-36.97-13.66c-8.34-1.9301-16.99-2.11-25.48-1.24c3.88-5.4,9.27-9.8201,11.96-16
		c1.53-3.77-0.12-7.64-1.88-10.97c-13.32,11.35-31.52,13.5-48.31,14.6799c14.86-11.4299,27.71-25.25,39.07-40.12
		c12.81-16.15,23.91-33.9,39.27-47.85c15.25-11.05,30.57-22.03,45.21-33.88c2.62-2.39,5.56-4.51,7.48-7.54
		C150.06,1102.76,161.87,1095.9301,175.06,1092.85z"/>
	<path fill="#FFFFFF" d="M750.98,1163.64c2.5-2.22,4.19-5.1901,6.77-7.33c0.2,1.86,0.32,3.7699,0.32,5.6699
		C755.56,1161.75,753.2,1162.5601,750.98,1163.64z"/>
	<path fill="#FFFFFF" d="M53.7,1229.9399c1.66,0.67,0.4,2.7101,0.25,3.9801c-1.85,4.22-5.39,7.4299-8.25,10.99
		c-1.4-4.42-6.29-6.16-10.5-6.38C41.6,1236.3101,48.42,1234.37,53.7,1229.9399z"/>
	<path fill="#FFFFFF" d="M331.81,1232.5601c8.25-2.0801,16.8-1.3601,25.2-2.0601c46.99-0.29,93.35,8.45,140.05,12.1
		c6.53,1.23,13.19,0.53,19.77,0.84c3.79,1.65,7.97,0.3701,11.9,1.0901c-4.82,0.23-9.81,0.65-14.42-1.0601
		c-12.76,0.5701-25.52-0.73-38.24-1.48c-18.03-1.48-36.08-3.04-54.07-5.02c-22.64-2.02-45.18-5.8199-67.98-5.12
		c-8.73-0.22-17.39,0.73-26.05,1.5801c-2.25,0.34-4.34,1.5099-6.68,1.1699C324.66,1233.27,328.35,1233.49,331.81,1232.5601z"/>
	<path fill="#FFFFFF" d="M315.69,1235.51c0.05-2.73,1.93-0.02,3.08,0.24c-8-0.0601-15.73,2.55-23.44,4.4
		c-32.14,8.63-63.14,21.5499-95.98,27.48l0.26,0.85c-3.5,0-6.77,1.5-10.31,1.35c2.65-1.33,5.62-1.35,8.44-2.0299
		c23.61-5.03,46.36-13.2201,69.28-20.65c8.04-2.54,15.82-5.8301,23.97-8.04C298.98,1236.64,307.35,1235.6801,315.69,1235.51z"/>
</g>
</svg>
