<?xml version="1.0" encoding="UTF-8" standalone="no"?>
<!-- Created with Inkscape (http://www.inkscape.org/) -->
<svg id="svg3566" xmlns:rdf="http://www.w3.org/1999/02/22-rdf-syntax-ns#" xmlns="http://www.w3.org/2000/svg" height="100" viewBox="0 0 502.56598 900" width="100" version="1.1" xmlns:cc="http://creativecommons.org/ns#" xmlns:dc="http://purl.org/dc/elements/1.1/">
 <metadata id="metadata3572">
  <rdf:RDF>
   <cc:Work rdf:about="">
    <dc:format>image/svg+xml</dc:format>
    <dc:type rdf:resource="http://purl.org/dc/dcmitype/StillImage"/>
    <dc:title/>
   </cc:Work>
  </rdf:RDF>
 </metadata>
 <path id="path3576" d="m116.73 895.27c-45.244-23.539-28.854-40.179 42.931-43.588 22.533-1.0699 29.63-0.66198 40.723 2.3408 7.389 2.0001 16.455 3.1241 20.146 2.4977 16.262-2.7594 22.92-4.6308 23.586-6.6287 0.65371-1.9611-27.62-19.497-31.436-19.497-3.7507 0-27.665-17.195-34.494-24.801-10.128-11.282-13.815-10.86-13.966 1.5993-0.38752 32.106-44.275 54.631-65.678 33.709-3.5909-3.5102-7.8065-6.3822-9.3681-6.3822-16.069 0-13.966-19.209 2.849-26.019 35.251-14.277 10.145-14.19-29.279 0.10085-34.096 12.359-40.187 11.814-57.871-5.179-16.637-15.986 10.683-28.712 61.638-28.712 25.728 0 25.801-0.18623 5.7115-14.509-53.37-38.04-69.593-125.6-23.744-128.09 14.41-0.7836 47.15 3.7789 49.038 6.8338 3.4595 5.5976 4.6484-0.65482 3.6934-19.424-1.446-28.36-1.588-28.83-12.182-40.76-14.68-16.53-15.837-18.86-13.155-26.55 1.946-5.5824 1.7663-7.0441-1.1261-9.1591-3.1909-2.3332-3.1347-3.1892 0.77042-11.747 4.0481-8.8705 4.0672-9.3473 0.49154-12.245-3.5266-2.8578-3.2577-3.8251 5.1605-18.561 10.301-18.032 10.429-18.593 4.2714-18.785-12.538-0.39165-12.432-1.4811 2.6937-27.616 9.4126-16.264 13.581-25.363 12.236-26.708-4.1303-4.1303-1.6226-9.4046 17.825-37.491 26.994-38.985 28.381-41.838 26.769-55.072-1.0809-8.8718-37.718-89.878-63.389-140.15-2.1731-4.256-11.079-27.522-15.592-40.731-1.7438-5.1044-6.3371-16.074-10.207-24.378-3.8703-8.3034-8.136-19.207-9.4794-24.229-1.4771-5.5228-3.913-9.5989-6.1631-10.313-7.9911-2.5363-11.933-16.774-7.3986-26.726 9.0545-19.872 38.784-11.282 38.784 11.207 0 26.335 49.537 44.937 90.199 33.871 6.5388-1.7795 17.921-3.4438 25.294-3.6985s16.856-1.9997 21.073-3.8778c4.2172-1.8781 8.5708-3.4147 9.6746-3.4147 4.1583 0 4.5022-4.5219 1.0345-13.602-5.3974-14.133-1.7929-31.139 9.1061-42.963 13.524-14.672 15.495-18.731 14.087-29.004l-1.2544-9.1517 9.5666-4.2318c19.725-8.7254 31.384 0.0131 23.011 17.247l-4.4454 9.1499 6.2252 7.9199c20.08 25.546 24.862 53.041 12.128 69.736-8.2764 10.851-12.402 5.3598-14.051-18.7-0.69261-10.108-2.7776-18.396-6.7457-26.811-3.1588-6.6991-5.8452-14.5-5.9699-17.336-0.29888-6.7982-6.1792-6.8205-7.1369-0.027-0.39767 2.8209-2.3211 7.4613-4.2742 10.312-7.6359 11.145-18.382 42.539-15.461 45.171 1.0435 0.94036 7.3575 2.7624 14.031 4.049s15.026 3.8818 18.561 5.7672c3.5352 1.8854 10.253 5.3719 14.928 7.7478 10.439 5.305 21.926 18.709 26.663 31.114 4.5653 11.954 7.2806 11.705 19.623-1.7991 12.038-13.171 28.816-22.323 51.018-27.829 8.7316-2.1653 17.443-4.5793 19.36-5.3644 16.013-1.0015 11.305-0.9011 25.514 0.98012 3.3062 0 4.6902-1.1287 4.4988-3.6691-1.4271-18.946 32.518-41.269 36.801-24.202 4.3102 17.173-1.6817 31.852-14.765 36.17-7.621 2.5152-8.2563 3.844-10.329 21.605-0.84717 7.2609-3.1068 14.505-5.4682 17.53-2.2134 2.8358-9.0178 13.045-15.121 22.686-6.103 9.6416-11.818 18.247-12.7 19.123-8.7097 8.6502-31.989 26.022-47.376 35.354-47.352 28.717-61.553 45.55-51.064 60.526 2.9566 4.2211 2.8064 5.1157-2.0624 12.281-5.768 8.4884-6.5213 12.925-2.8225 16.624 1.8634 1.8634 0.14664 3.4382-7.3753 6.7656-7.6154 3.3686-9.4866 5.1055-8.3819 7.78 3.9812 9.6389 3.7379 9.9852-8.6801 12.358-6.6114 1.263-19.168 2.9141-27.903 3.6691-57.4 4.961-36.044 137.91 46.1 287 11.5 20.872 12.676 12.106 4.0868-30.444-27.85-137.96-14.191-228.11 43.902-289.76 5.3444-5.6715 11.169-12.422 12.944-15.002 1.7749-2.5794 10.298-10.33 18.941-17.224 30.208-24.096 66.81-66.553 81.944-95.051 13.103-24.673 15.577-23.55 19.154 8.6908 1.0698 9.6416 5.7631 37.02 10.43 60.84 9.9423 50.752 14.523 90.491 14.523 125.99v25.526l-12.284 37.086c-9.4658 28.577-17.264 46.92-33.988 79.95-34.92 68.964-39.539 87.769-42.449 172.79-2.8226 82.474-5.3267 93.815-24.925 112.89-6.687 6.5076-12.158 13.261-12.158 15.007 0 10.415-28.585 28.767-49.2 31.586-8.4781 1.1595-14.317 3.243-17.52 6.2514-7.1046 6.6744-16.188 8.6007-29.776 6.3148-41.889-7.0468-98.525-3.1232-119.72 8.2937-21.588 11.63-29.606 12.579-43.821 5.1829zm218.55-45.158c38.755-20.041 41.479-81.779 5.8916-133.56-3.9309-5.72 0.46159-7.1981 4.7991-1.6149 6.1957 7.9751 21.657 39.056 25.12 50.497 1.7167 5.6715 5.2966 17.512 7.9555 26.313 2.6589 8.8005 5.786 15.71 6.9492 15.356 9.6051-2.9312 15.599-43.027 14.128-94.509-0.73569-25.753-0.23-42.769 1.6113-54.217 1.4759-9.1767 2.465-17.469 2.198-18.427-1.8995-6.8182 22.979-73.581 39.053-104.8 3.3064-6.4221 8.2484-17.559 10.982-24.749 2.7338-7.1896 8.6862-20.961 13.227-30.602 11.183-23.743 18.412-48.566 15.492-53.195-1.6142-2.559-1.5209-4.0569 0.3472-5.5722 3.0443-2.4696 5.4517-19.142 2.9842-20.667-0.94797-0.58588-2.3065-0.12209-3.019 1.0308-2.3461 3.7961-5.1767 2.1869-5.1767-2.943 0-2.8029 1.9486-6.4038 4.391-8.1145 3.4688-2.4297 4.0879-4.295 2.9477-8.882-0.79381-3.1936-1.6364-9.0547-1.8725-13.025-0.7852-13.205-5.6793-15.444-9.8398-4.5013-1.6555 4.3542-1.3504 5.9264 1.5632 8.0569 5.0625 3.7018 0.81885 8.043-4.8806 4.9928-3.4307-1.836-3.8722-3.798-3.0596-13.597 1.194-14.398-4.0773-16.475-8.0617-3.1768-3.8763 12.938-9.1318 15.996-7.0467 4.1002 2.7005-15.407 2.4931-17.53-1.7123-17.53-2.5854 0-4.6221 2.3762-6.1871 7.2183-2.5855 7.9996-6.3266 7.9996-6.6955 0-0.59222-12.842-0.92607-14.437-3.0217-14.437-1.2255 0-3.6865 3.7123-5.4688 8.2495-4.7671 12.136-10.783 10.424-6.5041-1.8513 3.0174-8.6557 1.157-13.476-4.1127-10.655-4.4538 2.3836-8.497 12.349-8.497 20.942 0 5.3588-3.1406 9.735-5.3796 7.4961-1.0032-1.0032 2.0984-21.503 4.5167-29.853 1.0771-3.7187 0.52083-4.6404-2.8006-4.6404-4.3414 0-6.6483 3.6964-6.6483 10.652 0 2.3988-1.0799 3.7578-2.578 3.2442-2.8093-0.96306-3.1866-10.707-0.63789-16.475 1.2027-2.7219 0.65323-3.593-2.235-3.5436-6.4165 0.10992-11.588 5.2966-10.065 10.095 3.019 9.5122-0.95265 14.085-6.352 7.3141-4.7143-5.9124-4.8928-5.9574-7.8088-1.9695-3.5734 4.887-5.6685 3.5594-4.0642-2.5755 0.63857-2.4419 3.8304-5.3529 7.131-6.5034 5.8939-2.0546 12.095-11.316 9.3893-14.022-0.76537-0.76537-4.1268 0.63066-7.4698 3.1023-7.4699 5.5227-8.9468 5.6321-7.3315 0.54267 8.2349-25.946-28.44 18.899-46.25 56.553-5.8988 12.471-11.634 24.369-12.745 26.441-22.54 42.019-17.809 161.8 9.8447 249.2 7.9599 25.159 10.752 40.92 7.2504 40.92-3.55 0-33.321-34.195-33.321-38.272 0-0.61246-3.8568-6.8689-8.5707-13.903-19.651-29.324-56.901-114.02-61.866-140.66-4.4747-24.013-6.3178-33.485-8.1039-41.645-4.8094-21.975-0.0186-85.52 7.2885-96.671 4.6512-7.0987 9.9051-8.7175 35.159-10.833 22.548-1.889 27.229-3.3997 21.123-6.8169-5.9002-3.302-4.1355-7.1308 5.6887-12.343 10.77-5.7134 11.105-6.5306 4.0084-9.7642-5.9194-2.6971-5.0338-5.8296 2.4531-8.6761 4.662-1.7725 4.9327-2.6431 3.7037-11.908-2.8177-21.241 7.9287-34.477 60.279-74.245 50.509-38.369 83.514-93.907 41.806-70.348-39.436 22.276-52.437 31.922-56.339 41.798-3.3694 8.5289-9.6438 9.987-10.74 2.4959-0.32486-2.2201-1.7618-6.2248-3.1932-8.8994-4.9347-9.2205 14.439-25.454 51.344-43.021 12.761-6.0744 23.202-11.978 23.202-13.12 0-7.579-50.863 11.27-70.334 26.065-15.502 11.779-13.978 12.041-32.165-5.5146-27.931-26.96-57.572-36.01-97.953-29.905-64.091 9.689-96.193 5.2574-120.82-16.679-13.382-11.92-15.141-12.683-18.878-8.1808-1.9146 2.307-0.88353 6.1686 4.9034 18.363 4.0303 8.4931 7.3279 16.479 7.3279 17.747 0 1.2675 2.3 5.7801 5.1111 10.028s5.7239 10.956 6.4728 14.908c3.0268 15.971 15.908 27.526 47.194 42.336 27.042 12.801 30.432 13.191 36.023 4.1454 5.5892-9.0435 11.508-10.074 9.5253-1.6585-7.3242 31.08 2.1071 53.414 28.026 66.366 17.614 8.8018 29.896 7.4972 14.091-1.4966-10.784-6.1364-7.8755-8.6692 9.9551-8.6692 19.341 0 21.155-1.1844 11.676-7.6254-10.653-7.2386-9.675-9.8022 3.4156-8.9581 8.4485 0.54478 8.7068-3.1794 0.55406-7.9897-9.0854-5.3605-8.2434-9.0896 2.3963-10.613 31.235-4.4733 41.224-32.786 17.94-50.849-21.504-16.681-31.718-20.018-77.312-25.258-37.576-4.3184-45.454-6.6381-40.242-11.85 2.4811-2.4811 4.5419-2.688 10.037-1.0075 3.8031 1.1631 20.243 3.2271 36.534 4.5868 30.571 2.5516 57.97 7.9896 63.538 12.611 1.7506 1.4528 5.141 3.6178 7.5344 4.811 7.4325 3.7055 22.976 24.898 25.682 35.016 3.8354 14.34-7.7307 33.129-23.622 38.374-9.4118 3.1062-8.5877 5.3006 2.7752 7.3897 15.936 2.9299 8.9922 13.113-8.9417 13.113-6.1197 0-4.4964 3.2211 2.2377 4.4402 11.248 2.0362 3.1983 8.7394-14.104 11.744-7.8833 1.3691-13.031 6.5017-6.521 6.5017 9.7782 0 0.77219 7.4695-12.777 10.597-29.511 6.812-59.304-16.199-69.487-53.67l-2.4577-9.0438-15.752-4.5434c-8.6638-2.4989-20.991-8.0217-27.394-12.273-19.927-13.231-17.891-6.1624 20.743 72.027 21.045 42.592 24.944 54.078 22.925 67.539-1.3518 9.0141-2.6621 10.958-35.762 53.058-15.498 19.712-17.076 22.738-11.859 22.738 5.2149 0 3.5966 4.3083-10.315 27.462-15.692 26.117-15.385 24.959-6.2218 23.472 10.585-1.7178 10.61 0.99139 0.1838 20.275-8.5009 15.722-9.0334 17.474-5.3125 17.474 5.0696 0 5.0795 0.35523 0.27522 9.8784-6.2797 12.448-7.2059 16.932-3.4972 16.932 4.1322 0 4.1143 4.6868-0.04875 12.737l-3.2813 6.3453 11.015 11.451c14.756 15.34 16.169 16.964 16.185 18.595 0.19091 19.884 2.9958 45.764 8.087 74.614 16.308 92.415 12.883 134.68-11.979 147.79-4.9687 2.6206-10.305 5.8196-11.859 7.1089-7.2329 6.0028 0.63456 10.045 10.178 5.229 3.6244-1.8288 10.487-4.291 15.251-5.4715 15.909-3.9424 17.914-9.4447 16.407-45.039-0.70341-16.62-1.2952-58.332-1.3152-92.694l-0.0363-62.475-9.7963-10.517c-9.2234-9.902-9.4103-10.319-3.196-7.13 8.7616 4.4962 12.434 4.2708 14.063-0.86338 0.74197-2.3377 3.8207-5.3351 6.8417-6.6607s6.1501-3.3495 6.9536-4.4974c0.97394-1.3914 2.1484-1.3996 3.5233-0.0247 2.4238 2.4238 0.7481 5.2613-4.9842 8.4398-4.6874 2.5992-5.6356 8.3496-1.2202 7.4003 3.7834-0.81338 6.305 3.3284 6.3445 10.421 0.0427 7.6702 5.5091 7.4104 7.2119-0.34268 0.72652-3.3078 0.69698-9.3403-0.0657-13.405-0.83585-4.4554-0.57181-7.3912 0.66477-7.3912 2.7272 0 5.2987 7.628 5.4797 16.255 0.19192 9.1481 5.9261 13.285 10.281 7.4168 1.7611-2.3727 2.5449-6.2362 1.8736-9.2352-1.1418-5.1006-1.0836-5.0875 5.4289 1.2225l6.583 6.3785-2.4647 25.588c-1.3556 14.074-3.28 27.737-4.2764 30.363-3.0348 7.9979-2.4406 8.3172 17.265 9.277 36.248 1.7656 75.73 15.799 93.582 33.264 3.5454 3.4686 10.435 8.6266 15.31 11.462 15.263 8.8783 39.051 34.791 39.076 42.568 0.004 1.2932-8.5774-6.1313-19.07-16.499-49.045-48.459-138.28-70.482-161.18-39.776-34.891 46.791 23.359 118.72 115.29 142.37 9.0592 2.3304 45.652-0.30218 52.351-3.7662zm-198.93-267.43c-0.77942-1.2611-0.16264-3.0683 1.3706-4.0159 2.6168-1.6173 5.8816 0.99188 5.9586 4.7621 0.0492 2.4079-5.7445 1.818-7.3292-0.74617zm14.332-4.8266c-0.63206-1.6472-0.57322-3.9268 0.13078-5.0659 1.9928-3.2244 7.335-0.1971 7.335 4.1566 0 4.5742-5.7889 5.2792-7.4658 0.9093zm-8.3215-8.4372c-0.67168-1.7504-0.7043-3.6994-0.0725-4.3313 1.806-1.806 5.5479 1.2573 5.5479 4.5419 0 3.9574-3.9341 3.806-5.4754-0.21067zm-11.024-10.223c0-1.7015 0.92807-3.0936 2.0624-3.0936s2.0624 1.3921 2.0624 3.0936-0.92807 3.0936-2.0624 3.0936-2.0624-1.3921-2.0624-3.0936zm10.312-8.2495c0-1.7015 0.92807-3.0936 2.0624-3.0936s2.0624 1.3921 2.0624 3.0936-0.92807 3.0936-2.0624 3.0936-2.0624-1.3921-2.0624-3.0936zm319.67-141.34c0-4.7174 5.4188-7.7157 8.4557-4.6788 2.9614 2.9614-0.0703 8.8682-4.5516 8.8682-2.5493 0-3.9041-1.4538-3.9041-4.1895zm-33.67-11.07c-1.482-3.8621 3.5417-10.498 6.5432-8.6433 4.0893 2.5273 2.8953 11.536-1.5289 11.536-2.1473 0-4.4037-1.3019-5.0143-2.8931zm22.668 1.5182c-2.5195-2.5195-1.417-8.4795 1.7967-9.7127 3.6025-1.3824 6.1361 3.2929 4.3321 7.9941-1.2567 3.275-3.8463 4.0011-6.1288 1.7186zm14.638-7.3376c-1.438-3.9069 0.43143-7.7865 3.752-7.7865 3.7391 0 3.7816 4.9684 0.0691 8.0496-2.1685 1.7997-3.0849 1.7366-3.821-0.26308zm-51.073-8.8824c0-2.8714 1.4321-5.7702 3.1825-6.4419 4.4564-1.7101 5.7804 0.28981 4.2442 6.4106-1.7374 6.9222-7.4267 6.9462-7.4267 0.0313zm28.029 1.8694c-0.74409-1.9391-0.40986-4.4686 0.74272-5.6212 2.503-2.503 3.5923-1.6399 4.5463 3.6026 0.91046 5.0032-3.498 6.6858-5.289 2.0186zm-47.476-2.1708c-1.6116-4.1997 4.0992-10.705 6.8432-7.795 2.1542 2.2842-0.72107 11.255-3.6074 11.255-1.0495 0-2.5056-1.5569-3.2358-3.4597zm-15.337-8.3996c-1.8498-3.4565-1.6591-5.0239 0.92597-7.609 6.0518-6.0519 9.6005 0.75244 4.2259 8.1028-2.7332 3.7379-2.8954 3.7223-5.1519-0.49377zm53.346-0.51492c0-2.2915 1.3749-4.1248 3.0936-4.1248 1.7186 0 3.0936 1.8332 3.0936 4.1248 0 2.2915-1.3749 4.1248-3.0936 4.1248-1.7186 0-3.0936-1.8332-3.0936-4.1248zm-19.813-7.387c0.68852-1.7942 1.2518-3.6504 1.2518-4.1248 0-0.47437 1.3052-0.86251 2.9005-0.86251 1.8851 0 2.5229 1.444 1.8218 4.1248-0.59327 2.2686-2.4618 4.1248-4.1523 4.1248-1.9555 0-2.6183-1.1868-1.8218-3.2622zm11.882 0.0615c0.39189-2.0217 1.9613-4.0916 3.4875-4.5998 1.7749-0.59104 2.5182 0.40062 2.0624 2.7518-0.39189 2.0217-1.9613 4.0916-3.4875 4.5998-1.775 0.59104-2.5182-0.40062-2.0624-2.7518zm-61.281-9.3714c-1.7495-2.8307 4.1477-8.9938 6.9491-7.2624 2.8453 1.7585 0.54531 9.5227-2.8208 9.5227-1.5022 0-3.36-1.0171-4.1283-2.2603zm32.089-4.8363c0-2.9027 0.92807-5.2777 2.0624-5.2777s2.0624 1.8014 2.0624 4.003c0 2.2017-0.92807 4.5766-2.0624 5.2777-1.1697 0.72291-2.0624-1.0098-2.0624-4.003zm-12.374-0.93226c0-4.1518 5.3042-7.4425 7.159-4.4414 1.7342 2.806-1.1108 8.3456-4.286 8.3456-1.5801 0-2.8729-1.7568-2.8729-3.9041zm-28.89-16.47c0-2.1297 1.3921-5.0276 3.0936-6.4396 3.4086-2.8289 4.3094 0.61898 1.8417 7.0496-1.7264 4.4988-4.9353 4.1022-4.9353-0.60999zm-141.27-117.45c-10.903-5.1963-26.383-19.126-34.458-31.006-3.5786-5.2651-7.7303-10.315-9.2261-11.222-9.0954-5.5157-2.278-6.9113 33.005-6.7568 41.975 0.18388 49.397 2.9253 57.498 21.241 9.766 22.078-20.758 40.165-46.82 27.744zm-0.7696-22.913c1.1602-3.3281 4.3602-7.5258 7.111-9.3282 8.6992-5.6999 5.744-7.3068-13.438-7.3068-22.824 0-24.45 1.8751-11.906 13.728 11.13 10.516 15.346 11.188 18.233 2.9074zm-100.11 552.06c-0.79099-15.03-1.8282-35.679-2.3049-45.888-2.5803-55.257-7.3699-61.444-47.28-61.07-51.176 0.47913-43.031 55.581 16.468 111.41 33.476 31.412 34.994 31.208 33.117-4.4521z"/>
</svg>
